<svg width="1920" height="1080" viewBox="0 0 1920 1080" fill="none" xmlns="http://www.w3.org/2000/svg">
<rect width="1920" height="1080" fill="url(#paint0_linear_122_290)"/>
<g clip-path="url(#clip0_122_290)">
<g filter="url(#filter0_f_122_290)">
<path fill-rule="evenodd" clip-rule="evenodd" d="M156.711 0.238799C236.905 -7.05446 216.277 154.809 283.852 198.588C358.839 247.168 482.122 181.228 540.483 248.867C596.329 313.591 558.619 414.95 543.053 498.993C525.161 595.596 542.42 767.31 444.151 768.982C310.925 771.25 281.254 552.913 156.711 505.569C96.8999 482.833 56.0746 612.136 -6.2773 597.757C-61.213 585.088 -60.8779 503.36 -81.0564 450.737C-102.575 394.621 -156.585 333.843 -127.684 281.145C-97.5552 226.209 0.754303 264.314 45.3353 220.279C105.297 161.054 72.7611 7.87352 156.711 0.238799Z" fill="#7D6E9E" fill-opacity="0.61"/>
</g>
<g filter="url(#filter1_f_122_290)">
<path fill-rule="evenodd" clip-rule="evenodd" d="M1780.72 470.142C1828.31 465.817 1816.07 561.798 1856.18 587.758C1900.68 616.565 1973.85 577.464 2008.48 617.573C2041.63 655.952 2019.25 716.056 2010.01 765.892C1999.39 823.175 2009.63 924.998 1951.31 925.99C1872.24 927.334 1854.63 797.865 1780.72 769.791C1745.22 756.309 1720.99 832.983 1683.99 824.457C1651.38 816.945 1651.58 768.482 1639.61 737.277C1626.84 704.001 1594.78 667.961 1611.94 636.713C1629.82 604.137 1688.16 626.732 1714.62 600.621C1750.21 565.501 1730.9 474.669 1780.72 470.142Z" fill="#7D6E9E" fill-opacity="0.61"/>
</g>
<g filter="url(#filter2_f_122_290)">
<path fill-rule="evenodd" clip-rule="evenodd" d="M455.562 114.533C480.534 96.3795 487.666 48.5566 518.535 48.0025C541.65 47.5875 521.355 99.9726 540.449 113.009C568.17 131.936 610.644 111.381 638.591 129.972C666.743 148.701 677.999 183.992 692.829 214.38C715.981 261.821 794.45 330.213 750.797 359.896C692.354 399.637 609.212 282.221 546.147 314.121C496.03 339.472 555.146 437.027 516.937 478.19C488.815 508.485 412.253 514.947 394.286 477.721C361.437 409.656 431.958 325.843 408.706 253.933C399.996 226.993 349.104 280.052 325.376 264.605C307.83 253.181 322.08 222.055 329.932 202.646C337.03 185.1 364.239 179.454 367.376 160.789C371.312 137.366 329.631 107.519 348.37 92.9261C369.333 76.6017 397.34 111.922 423.385 117.172C434.051 119.322 446.761 120.931 455.562 114.533Z" fill="#F40E91"/>
</g>
<g filter="url(#filter3_f_122_290)">
<path fill-rule="evenodd" clip-rule="evenodd" d="M1695.98 525.722C1732.26 528.937 1762.46 550.619 1795.85 565.133C1833.65 581.56 1878.5 586.062 1905.78 616.916C1934.61 649.527 1958.93 695.619 1948.56 737.867C1937.95 781.107 1885.58 797.645 1853.75 828.823C1830.89 851.217 1809.2 872.494 1787.32 895.834C1755.69 929.558 1740.32 983.856 1695.98 997.053C1652.4 1010.02 1602.74 989.167 1566.68 961.498C1531.91 934.821 1518.45 890.083 1503.1 849.068C1489.66 813.173 1485.5 776.104 1482.97 737.867C1480.29 697.226 1468.61 653.786 1487.82 617.858C1507.13 581.745 1547.84 563.068 1585.32 546.478C1620.23 531.028 1657.95 522.352 1695.98 525.722Z" fill="#3B095C"/>
</g>
<g filter="url(#filter4_f_122_290)">
<path fill-rule="evenodd" clip-rule="evenodd" d="M1934.04 878.873C1917.63 883.59 1896.56 869.943 1878.71 871.573C1872.33 872.155 1875.81 882.876 1870.04 884.715C1864.22 886.57 1856.83 881.547 1850.12 880.682C1844.34 879.936 1838.49 879.114 1833.06 879.944C1822.47 881.563 1814.26 888.121 1803.1 887.87C1790.38 887.584 1776.27 885.264 1765.13 878.418C1754.31 871.772 1741.79 860.86 1743.05 850.97C1744.57 839.063 1760.32 833.628 1771.65 827.259C1779.57 822.808 1798.42 827.74 1799.25 819.367C1800.72 804.367 1768.07 786.72 1776.83 774.492C1783.81 764.761 1804.65 787.541 1819.55 791.051C1827.59 792.946 1836.12 792.536 1842.99 790.081C1857.65 784.841 1864.77 766.995 1882.01 768.732C1895.08 770.049 1902.84 785.882 1907.09 796.539C1911.34 807.19 1898.38 817.944 1905.59 827.845C1914.35 839.866 1940.37 839.249 1947.39 851.828C1953.05 861.99 1945.36 875.619 1934.04 878.873Z" fill="#F40E91"/>
</g>
<g style="mix-blend-mode:soft-light" opacity="0.54">
<circle cx="248" cy="652" r="16" fill="white"/>
</g>
<g style="mix-blend-mode:soft-light" opacity="0.54">
<circle cx="1294" cy="850" r="30" fill="white"/>
</g>
<g style="mix-blend-mode:soft-light" opacity="0.54">
<circle cx="1783" cy="700" r="13" fill="white"/>
</g>
<g style="mix-blend-mode:soft-light" opacity="0.54">
<circle cx="1280" cy="110" r="16" fill="white"/>
</g>
<g style="mix-blend-mode:soft-light" opacity="0.54">
<circle cx="327" cy="362" r="10" fill="white"/>
</g>
<g style="mix-blend-mode:soft-light" opacity="0.54">
<circle cx="75" cy="608" r="4" fill="white"/>
</g>
<g style="mix-blend-mode:soft-light" opacity="0.54">
<circle cx="1584" cy="546" r="4" fill="white"/>
</g>
</g>
<circle cx="1599.5" cy="177.5" r="69.5" stroke="white" stroke-width="4"/>
<path d="M1658 177.5C1658 216.21 1631.51 247 1599.5 247C1567.49 247 1541 216.21 1541 177.5C1541 138.79 1567.49 108 1599.5 108C1631.51 108 1658 138.79 1658 177.5Z" stroke="white" stroke-width="4"/>
<path d="M1642 177.5C1642 196.931 1637.09 214.427 1629.27 227.001C1621.42 239.605 1610.85 247 1599.5 247C1588.15 247 1577.58 239.605 1569.73 227.001C1561.91 214.427 1557 196.931 1557 177.5C1557 158.069 1561.91 140.573 1569.73 127.999C1577.58 115.395 1588.15 108 1599.5 108C1610.85 108 1621.42 115.395 1629.27 127.999C1637.09 140.573 1642 158.069 1642 177.5Z" stroke="white" stroke-width="4"/>
<path d="M1618 177.5C1618 197.112 1615.72 214.793 1612.07 227.507C1610.25 233.877 1608.11 238.887 1605.82 242.259C1603.49 245.699 1601.32 247 1599.5 247C1597.68 247 1595.51 245.699 1593.18 242.259C1590.89 238.887 1588.75 233.877 1586.93 227.507C1583.28 214.793 1581 197.112 1581 177.5C1581 157.888 1583.28 140.207 1586.93 127.493C1588.75 121.123 1590.89 116.113 1593.18 112.741C1595.51 109.301 1597.68 108 1599.5 108C1601.32 108 1603.49 109.301 1605.82 112.741C1608.11 116.113 1610.25 121.123 1612.07 127.493C1615.72 140.207 1618 157.888 1618 177.5Z" stroke="white" stroke-width="4"/>
<path d="M1591 108V91C1591 86.0294 1595.03 82 1600 82V82C1604.97 82 1609 86.0294 1609 91V108" stroke="white" stroke-width="4"/>
<path d="M1600 0L1600 81" stroke="white" stroke-width="3" stroke-dasharray="0.3 10"/>
<circle cx="919.675" cy="183.325" r="20.0964" stroke="white" stroke-width="1.15663"/>
<path d="M936.59 183.325C936.59 194.519 928.93 203.422 919.675 203.422C910.419 203.422 902.759 194.519 902.759 183.325C902.759 172.132 910.419 163.229 919.675 163.229C928.93 163.229 936.59 172.132 936.59 183.325Z" stroke="white" stroke-width="1.15663"/>
<path d="M931.964 183.325C931.964 188.944 930.545 194.003 928.282 197.639C926.014 201.283 922.955 203.422 919.675 203.422C916.394 203.422 913.335 201.283 911.067 197.639C908.804 194.003 907.386 188.944 907.386 183.325C907.386 177.707 908.804 172.648 911.067 169.012C913.335 165.367 916.394 163.229 919.675 163.229C922.955 163.229 926.014 165.367 928.282 169.012C930.545 172.648 931.964 177.707 931.964 183.325Z" stroke="white" stroke-width="1.15663"/>
<path d="M925.024 183.325C925.024 188.996 924.364 194.109 923.31 197.785C922.782 199.627 922.164 201.076 921.503 202.051C920.829 203.045 920.201 203.422 919.675 203.422C919.149 203.422 918.52 203.045 917.846 202.051C917.185 201.076 916.567 199.627 916.039 197.785C914.985 194.109 914.325 188.996 914.325 183.325C914.325 177.654 914.985 172.542 916.039 168.866C916.567 167.023 917.185 165.575 917.846 164.6C918.52 163.605 919.149 163.229 919.675 163.229C920.201 163.229 920.829 163.605 921.503 164.6C922.164 165.575 922.782 167.023 923.31 168.866C924.364 172.542 925.024 177.654 925.024 183.325Z" stroke="white" stroke-width="1.15663"/>
<path d="M917.217 163.229V158.313C917.217 156.876 918.382 155.711 919.819 155.711V155.711C921.257 155.711 922.422 156.876 922.422 158.313V163.229" stroke="white" stroke-width="1.15663"/>
<path d="M920 0L920 155" stroke="white" stroke-width="0.86747" stroke-dasharray="0.09 2.89"/>
<g filter="url(#filter5_f_122_290)">
<circle cx="182.775" cy="351.965" r="36.7181" stroke="white" stroke-width="2.11327"/>
<path d="M213.681 351.965C213.681 372.416 199.685 388.683 182.775 388.683C165.864 388.683 151.868 372.416 151.868 351.965C151.868 331.513 165.864 315.246 182.775 315.246C199.685 315.246 213.681 331.513 213.681 351.965Z" stroke="white" stroke-width="2.11327"/>
<path d="M205.228 351.965C205.228 362.23 202.636 371.474 198.502 378.117C194.358 384.776 188.769 388.683 182.775 388.683C176.781 388.683 171.192 384.776 167.048 378.117C162.913 371.474 160.321 362.23 160.321 351.965C160.321 341.699 162.913 332.455 167.048 325.812C171.192 319.153 176.781 315.246 182.775 315.246C188.769 315.246 194.358 319.153 198.502 325.812C202.636 332.455 205.228 341.699 205.228 351.965Z" stroke="white" stroke-width="2.11327"/>
<path d="M192.549 351.965C192.549 362.326 191.343 371.667 189.417 378.384C188.452 381.75 187.323 384.397 186.116 386.178C184.884 387.995 183.736 388.683 182.775 388.683C181.814 388.683 180.666 387.995 179.434 386.178C178.226 384.397 177.097 381.75 176.132 378.384C174.206 371.667 173.001 362.326 173.001 351.965C173.001 341.603 174.206 332.262 176.132 325.545C177.097 322.179 178.226 319.532 179.434 317.751C180.666 315.934 181.814 315.246 182.775 315.246C183.736 315.246 184.884 315.934 186.116 317.751C187.323 319.532 188.452 322.179 189.417 325.545C191.343 332.262 192.549 341.603 192.549 351.965Z" stroke="white" stroke-width="2.11327"/>
<path d="M178.284 315.247V306.265C178.284 303.639 180.413 301.51 183.039 301.51V301.51C185.665 301.51 187.794 303.639 187.794 306.265V315.247" stroke="white" stroke-width="2.11327"/>
<path d="M183.051 0L183.051 300.953" stroke="white" stroke-width="2.30615" stroke-dasharray="0.16 5.28"/>
</g>
<path d="M1496.85 335.857C1496.89 335.681 1496.96 335.602 1497.02 335.556C1497.09 335.501 1497.2 335.458 1497.34 335.458C1497.47 335.457 1497.58 335.498 1497.66 335.553C1497.72 335.598 1497.79 335.676 1497.83 335.852L1504.53 366.857C1505.72 372.324 1509.75 376.73 1515.1 378.386L1537.76 385.411C1539.16 385.845 1539.17 387.823 1537.77 388.272L1515.19 395.534C1509.86 397.246 1505.87 401.694 1504.75 407.173L1498.37 438.247C1498.33 438.423 1498.26 438.502 1498.2 438.547C1498.13 438.603 1498.01 438.645 1497.88 438.646C1497.74 438.647 1497.63 438.606 1497.56 438.551C1497.5 438.506 1497.43 438.427 1497.39 438.252L1490.68 407.247C1489.5 401.78 1485.46 397.374 1480.12 395.718L1457.46 388.693C1456.06 388.259 1456.05 386.281 1457.44 385.832L1480.03 378.57C1485.36 376.858 1489.35 372.41 1490.47 366.931L1496.85 335.857Z" fill="white" stroke="white" stroke-width="3"/>
<path d="M1506.26 374.85L1506.45 375.706L1507.28 375.965L1542.3 386.818L1507.4 398.037L1506.57 398.305L1506.39 399.163L1497.89 440.571L1488.95 399.254L1488.77 398.398L1487.93 398.139L1452.92 387.286L1487.82 376.067L1488.65 375.799L1488.83 374.941L1497.33 333.533L1506.26 374.85Z" fill="white" stroke="white" stroke-width="3"/>
<path d="M1470.23 357.805L1498.46 375.297L1526.7 357.805L1509.2 386.037L1526.7 414.269L1498.46 396.777L1470.23 414.269L1487.72 386.037L1470.23 357.805Z" fill="white"/>
<circle cx="1498" cy="326" r="7" stroke="white" stroke-width="4"/>
<path d="M1498 0L1498 326" stroke="white" stroke-width="3" stroke-dasharray="0.3 10"/>
<g filter="url(#filter6_f_122_290)">
<path d="M1659 0L1659 607" stroke="white" stroke-width="2" stroke-dasharray="0.3 10"/>
<circle cx="1659.68" cy="651.395" r="32.4611" stroke="white" stroke-width="1.86826"/>
<path d="M1655.71 619.144V611.204C1655.71 608.882 1657.6 607 1659.92 607V607C1662.24 607 1664.12 608.882 1664.12 611.204V619.144" stroke="white" stroke-width="1.86826"/>
<path d="M1665.48 632.984L1664.25 646.195L1677.12 642.935L1666.9 651.407L1678.3 658.196L1665.09 656.966L1668.35 669.828L1659.88 659.616L1653.09 671.016L1654.32 657.805L1641.46 661.065L1651.67 652.593L1640.27 645.804L1653.48 647.034L1650.22 634.172L1658.7 644.384L1665.48 632.984Z" fill="white"/>
<path d="M1659.79 619.5V684" stroke="white" stroke-width="2"/>
<path d="M1636.98 628.946L1682.59 674.554" stroke="white" stroke-width="2"/>
<path d="M1627.54 651.75H1692.04" stroke="white" stroke-width="2"/>
<path d="M1636.98 674.554L1682.59 628.946" stroke="white" stroke-width="2"/>
<path d="M1675.79 623.5V635.5H1688.29" stroke="white" stroke-width="2"/>
<path d="M1691.25 644.002L1682.31 652.009L1690.65 661.319" stroke="white" stroke-width="2"/>
<path d="M1628.56 660.113L1637.31 651.893L1628.74 642.786" stroke="white" stroke-width="2"/>
<path d="M1643.77 679.035L1643.81 667.035L1631.31 667" stroke="white" stroke-width="2"/>
<path d="M1631.29 635.5L1643.29 635.5L1643.29 623" stroke="white" stroke-width="2"/>
<path d="M1688.31 667.035L1676.31 667.001L1676.27 679.501" stroke="white" stroke-width="2"/>
<path d="M1668.2 682.869L1659.76 674.339L1650.88 683.131" stroke="white" stroke-width="2"/>
<path d="M1651.88 619.386L1659.91 628.303L1667.29 620" stroke="white" stroke-width="2"/>
</g>
<g filter="url(#filter7_f_122_290)">
<path d="M481.964 441.843C481.982 441.757 482.017 441.718 482.046 441.696C482.081 441.669 482.136 441.648 482.201 441.648C482.267 441.648 482.322 441.668 482.358 441.695C482.387 441.716 482.422 441.755 482.441 441.84L487.453 465.019C488.029 467.681 489.994 469.826 492.595 470.632L510.253 476.106C510.934 476.317 510.939 477.28 510.26 477.498L492.66 483.156C490.068 483.99 488.126 486.155 487.578 488.823L482.809 512.054C482.791 512.139 482.756 512.178 482.727 512.2C482.691 512.227 482.637 512.248 482.571 512.248C482.506 512.248 482.451 512.228 482.415 512.202C482.386 512.18 482.351 512.142 482.332 512.056L477.32 488.877C476.744 486.215 474.779 484.07 472.178 483.264L454.52 477.791C453.838 477.579 453.833 476.616 454.513 476.398L472.112 470.74C474.705 469.906 476.647 467.741 477.195 465.073L481.964 441.843Z" fill="white" stroke="white" stroke-width="1.46059"/>
<path d="M488.295 468.911L488.385 469.328L488.792 469.454L512.462 476.79L488.87 484.375L488.464 484.505L488.379 484.923L482.576 513.185L476.478 484.986L476.388 484.569L475.981 484.442L452.311 477.106L475.902 469.521L476.308 469.391L476.394 468.973L482.196 440.711L488.295 468.911Z" fill="white" stroke="white" stroke-width="1.46059"/>
<path d="M464.473 457.811L482.946 469.256L501.419 457.811L489.973 476.284L501.419 494.757L482.946 483.311L464.473 494.757L475.918 476.284L464.473 457.811Z" fill="white"/>
<circle cx="481.862" cy="430" r="6" stroke="white" stroke-width="2"/>
<path d="M482 0L482 424" stroke="white" stroke-width="2" stroke-dasharray="0.3 10"/>
</g>
<g filter="url(#filter8_f_122_290)">
<path d="M1801.72 345.459C1801.74 345.374 1801.77 345.336 1801.8 345.314C1801.83 345.287 1801.89 345.266 1801.95 345.266C1802.02 345.266 1802.07 345.286 1802.11 345.312C1802.14 345.334 1802.17 345.372 1802.19 345.457L1807.17 368.478C1807.74 371.121 1809.69 373.252 1812.28 374.052L1829.81 379.488C1830.49 379.698 1830.5 380.654 1829.82 380.871L1812.34 386.491C1809.77 387.318 1807.84 389.469 1807.29 392.119L1802.56 415.19C1802.54 415.275 1802.5 415.314 1802.48 415.336C1802.44 415.363 1802.39 415.383 1802.32 415.384C1802.26 415.384 1802.2 415.364 1802.17 415.337C1802.14 415.316 1802.1 415.278 1802.08 415.193L1797.11 392.172C1796.53 389.528 1794.58 387.398 1792 386.597L1774.46 381.161C1773.78 380.952 1773.78 379.995 1774.45 379.778L1791.93 374.159C1794.51 373.331 1796.44 371.18 1796.98 368.531L1801.72 345.459Z" fill="white" stroke="white" stroke-width="1.45061"/>
<path d="M1808.01 372.342L1808.1 372.756L1808.5 372.882L1832.01 380.168L1808.58 387.701L1808.17 387.83L1808.09 388.245L1802.33 416.314L1796.27 388.307L1796.18 387.893L1795.78 387.768L1772.27 380.481L1795.7 372.949L1796.1 372.819L1796.19 372.404L1801.95 344.336L1808.01 372.342Z" fill="white" stroke="white" stroke-width="1.45061"/>
<path d="M1784.35 361.318L1802.69 372.686L1821.04 361.318L1809.67 379.665L1821.04 398.012L1802.69 386.645L1784.35 398.012L1795.71 379.665L1784.35 361.318Z" fill="white"/>
<circle cx="1801.62" cy="333.698" r="5.95901" stroke="white" stroke-width="1.98634"/>
<path d="M1801 0L1801 328" stroke="white" stroke-width="1.98634" stroke-dasharray="0.3 9.93"/>
</g>
<path d="M313 0L313 85" stroke="white" stroke-width="3" stroke-dasharray="0.3 10"/>
<circle cx="312.651" cy="189.651" r="75.788" stroke="white" stroke-width="4.3619"/>
<path d="M303.382 114.352V95.8143C303.382 90.394 307.776 86 313.196 86V86C318.616 86 323.01 90.394 323.01 95.8143V114.352" stroke="white" stroke-width="4.3619"/>
<path d="M326.194 146.666L323.323 177.51L353.351 169.899L329.51 189.679L356.125 205.53L325.281 202.658L332.892 232.686L313.112 208.845L297.261 235.46L300.133 204.616L270.105 212.227L293.946 192.448L267.331 176.596L298.175 179.468L290.564 149.44L310.343 173.281L326.194 146.666Z" fill="white"/>
<path d="M312.896 115.184V265.775" stroke="white" stroke-width="4.66947"/>
<path d="M259.654 137.238L366.138 243.721" stroke="white" stroke-width="4.66947"/>
<path d="M237.601 190.479H388.191" stroke="white" stroke-width="4.66947"/>
<path d="M259.654 243.721L366.138 137.238" stroke="white" stroke-width="4.66947"/>
<path d="M350.252 124.523V152.54H379.436" stroke="white" stroke-width="4.66947"/>
<path d="M386.35 172.389L365.483 191.085L384.957 212.821" stroke="white" stroke-width="4.66947"/>
<path d="M239.991 210.004L260.403 190.813L240.412 169.551" stroke="white" stroke-width="4.66947"/>
<path d="M275.503 254.182L275.581 226.165L246.397 226.084" stroke="white" stroke-width="4.66947"/>
<path d="M246.356 152.54L274.373 152.54L274.373 123.356" stroke="white" stroke-width="4.66947"/>
<path d="M379.476 226.165L351.459 226.087L351.378 255.271" stroke="white" stroke-width="4.66947"/>
<path d="M332.538 263.133L312.831 243.219L292.087 263.747" stroke="white" stroke-width="4.66947"/>
<path d="M294.429 114.918L313.178 135.737L330.406 116.352" stroke="white" stroke-width="4.66947"/>
<defs>
<filter id="filter0_f_122_290" x="-310.5" y="-174.5" width="1055" height="1118" filterUnits="userSpaceOnUse" color-interpolation-filters="sRGB">
<feFlood flood-opacity="0" result="BackgroundImageFix"/>
<feBlend mode="normal" in="SourceGraphic" in2="BackgroundImageFix" result="shape"/>
<feGaussianBlur stdDeviation="87.25" result="effect1_foregroundBlur_122_290"/>
</filter>
<filter id="filter1_f_122_290" x="1432.5" y="295.5" width="768" height="805" filterUnits="userSpaceOnUse" color-interpolation-filters="sRGB">
<feFlood flood-opacity="0" result="BackgroundImageFix"/>
<feBlend mode="normal" in="SourceGraphic" in2="BackgroundImageFix" result="shape"/>
<feGaussianBlur stdDeviation="87.25" result="effect1_foregroundBlur_122_290"/>
</filter>
<filter id="filter2_f_122_290" x="-58.4" y="-327.4" width="1197.59" height="1206.13" filterUnits="userSpaceOnUse" color-interpolation-filters="sRGB">
<feFlood flood-opacity="0" result="BackgroundImageFix"/>
<feBlend mode="normal" in="SourceGraphic" in2="BackgroundImageFix" result="shape"/>
<feGaussianBlur stdDeviation="187.7" result="effect1_foregroundBlur_122_290"/>
</filter>
<filter id="filter3_f_122_290" x="1177.1" y="225.1" width="1073.8" height="1075.8" filterUnits="userSpaceOnUse" color-interpolation-filters="sRGB">
<feFlood flood-opacity="0" result="BackgroundImageFix"/>
<feBlend mode="normal" in="SourceGraphic" in2="BackgroundImageFix" result="shape"/>
<feGaussianBlur stdDeviation="149.95" result="effect1_foregroundBlur_122_290"/>
</filter>
<filter id="filter4_f_122_290" x="1617.76" y="643.413" width="456.735" height="369.664" filterUnits="userSpaceOnUse" color-interpolation-filters="sRGB">
<feFlood flood-opacity="0" result="BackgroundImageFix"/>
<feBlend mode="normal" in="SourceGraphic" in2="BackgroundImageFix" result="shape"/>
<feGaussianBlur stdDeviation="62.6" result="effect1_foregroundBlur_122_290"/>
</filter>
<filter id="filter5_f_122_290" x="142.5" y="-2.5" width="80.5495" height="394.739" filterUnits="userSpaceOnUse" color-interpolation-filters="sRGB">
<feFlood flood-opacity="0" result="BackgroundImageFix"/>
<feBlend mode="normal" in="SourceGraphic" in2="BackgroundImageFix" result="shape"/>
<feGaussianBlur stdDeviation="1.25" result="effect1_foregroundBlur_122_290"/>
</filter>
<filter id="filter6_f_122_290" x="1622.19" y="-4.1" width="74.9904" height="692.99" filterUnits="userSpaceOnUse" color-interpolation-filters="sRGB">
<feFlood flood-opacity="0" result="BackgroundImageFix"/>
<feBlend mode="normal" in="SourceGraphic" in2="BackgroundImageFix" result="shape"/>
<feGaussianBlur stdDeviation="2.05" result="effect1_foregroundBlur_122_290"/>
</filter>
<filter id="filter7_f_122_290" x="445.785" y="-4.1" width="73.2028" height="524.926" filterUnits="userSpaceOnUse" color-interpolation-filters="sRGB">
<feFlood flood-opacity="0" result="BackgroundImageFix"/>
<feBlend mode="normal" in="SourceGraphic" in2="BackgroundImageFix" result="shape"/>
<feGaussianBlur stdDeviation="2.05" result="effect1_foregroundBlur_122_290"/>
</filter>
<filter id="filter8_f_122_290" x="1766.46" y="-3.4" width="71.3586" height="426.631" filterUnits="userSpaceOnUse" color-interpolation-filters="sRGB">
<feFlood flood-opacity="0" result="BackgroundImageFix"/>
<feBlend mode="normal" in="SourceGraphic" in2="BackgroundImageFix" result="shape"/>
<feGaussianBlur stdDeviation="1.7" result="effect1_foregroundBlur_122_290"/>
</filter>
<linearGradient id="paint0_linear_122_290" x1="2213.5" y1="-249" x2="-52.5002" y2="1162" gradientUnits="userSpaceOnUse">
<stop stop-color="#4F2653"/>
<stop offset="1" stop-color="#170034"/>
</linearGradient>
<clipPath id="clip0_122_290">
<rect width="1920" height="1001" fill="white"/>
</clipPath>
</defs>
</svg>
