<svg width="1920" height="1080" viewBox="0 0 1920 1080" fill="none" xmlns="http://www.w3.org/2000/svg">
<g clip-path="url(#clip0_201_9)">
<rect width="1920" height="1080" fill="url(#paint0_linear_201_9)"/>
<g filter="url(#filter0_f_201_9)">
<path fill-rule="evenodd" clip-rule="evenodd" d="M156.711 7.2388C236.905 -0.0544596 216.277 161.809 283.852 205.588C358.839 254.168 482.122 188.228 540.483 255.867C596.329 320.591 558.619 421.95 543.053 505.993C525.161 602.596 542.42 774.31 444.151 775.982C310.925 778.25 281.254 559.913 156.711 512.569C96.8999 489.833 56.0746 619.136 -6.2773 604.757C-61.213 592.088 -60.8779 510.36 -81.0564 457.737C-102.575 401.621 -156.585 340.843 -127.684 288.145C-97.5552 233.209 0.754303 271.314 45.3353 227.279C105.297 168.054 72.7611 14.8735 156.711 7.2388Z" fill="#7D6E9E" fill-opacity="0.61"/>
</g>
<g filter="url(#filter1_f_201_9)">
<path fill-rule="evenodd" clip-rule="evenodd" d="M1780.72 477.142C1828.31 472.817 1816.07 568.798 1856.18 594.758C1900.68 623.565 1973.85 584.464 2008.48 624.573C2041.63 662.952 2019.25 723.056 2010.01 772.892C1999.39 830.175 2009.63 931.998 1951.31 932.99C1872.24 934.334 1854.63 804.865 1780.72 776.791C1745.22 763.309 1720.99 839.983 1683.99 831.457C1651.38 823.945 1651.58 775.482 1639.61 744.277C1626.84 711.001 1594.78 674.961 1611.94 643.713C1629.82 611.137 1688.16 633.732 1714.62 607.621C1750.21 572.501 1730.9 481.669 1780.72 477.142Z" fill="#7D6E9E" fill-opacity="0.61"/>
</g>
<g filter="url(#filter2_f_201_9)">
<path fill-rule="evenodd" clip-rule="evenodd" d="M455.562 121.533C480.534 103.379 487.666 55.5566 518.535 55.0025C541.65 54.5875 521.355 106.973 540.449 120.009C568.17 138.936 610.644 118.381 638.591 136.972C666.743 155.701 677.999 190.992 692.829 221.38C715.981 268.821 794.45 337.213 750.797 366.896C692.354 406.637 609.212 289.221 546.147 321.121C496.03 346.472 555.146 444.027 516.937 485.19C488.815 515.485 412.253 521.947 394.286 484.721C361.437 416.656 431.958 332.843 408.706 260.933C399.996 233.993 349.104 287.052 325.376 271.605C307.83 260.181 322.08 229.055 329.932 209.646C337.03 192.1 364.239 186.454 367.376 167.789C371.312 144.366 329.631 114.519 348.37 99.9261C369.333 83.6017 397.34 118.922 423.385 124.172C434.051 126.322 446.761 127.931 455.562 121.533Z" fill="#F40E91"/>
</g>
<g filter="url(#filter3_f_201_9)">
<path fill-rule="evenodd" clip-rule="evenodd" d="M1695.98 532.722C1732.26 535.937 1762.46 557.619 1795.85 572.133C1833.65 588.56 1878.5 593.062 1905.78 623.916C1934.61 656.527 1958.93 702.619 1948.56 744.867C1937.95 788.107 1885.58 804.645 1853.75 835.823C1830.89 858.217 1809.2 879.494 1787.32 902.834C1755.69 936.558 1740.32 990.856 1695.98 1004.05C1652.4 1017.02 1602.74 996.167 1566.68 968.498C1531.91 941.821 1518.45 897.083 1503.1 856.068C1489.66 820.173 1485.5 783.104 1482.97 744.867C1480.29 704.226 1468.61 660.786 1487.82 624.858C1507.13 588.745 1547.84 570.068 1585.32 553.478C1620.23 538.028 1657.95 529.352 1695.98 532.722Z" fill="#3B095C"/>
</g>
<g filter="url(#filter4_f_201_9)">
<path fill-rule="evenodd" clip-rule="evenodd" d="M1934.04 885.873C1917.63 890.59 1896.56 876.943 1878.71 878.573C1872.33 879.155 1875.81 889.876 1870.04 891.715C1864.22 893.57 1856.83 888.547 1850.12 887.682C1844.34 886.936 1838.49 886.114 1833.06 886.944C1822.47 888.563 1814.26 895.121 1803.1 894.87C1790.38 894.584 1776.27 892.264 1765.13 885.418C1754.31 878.772 1741.79 867.86 1743.05 857.97C1744.57 846.063 1760.32 840.628 1771.65 834.259C1779.57 829.808 1798.42 834.74 1799.25 826.367C1800.72 811.367 1768.07 793.72 1776.83 781.492C1783.81 771.761 1804.65 794.541 1819.55 798.051C1827.59 799.946 1836.12 799.536 1842.99 797.081C1857.65 791.841 1864.77 773.995 1882.01 775.732C1895.08 777.049 1902.84 792.882 1907.09 803.539C1911.34 814.19 1898.38 824.944 1905.59 834.845C1914.35 846.866 1940.37 846.249 1947.39 858.828C1953.05 868.99 1945.36 882.619 1934.04 885.873Z" fill="#F40E91"/>
</g>
</g>
<defs>
<filter id="filter0_f_201_9" x="-310.5" y="-167.5" width="1055" height="1118" filterUnits="userSpaceOnUse" color-interpolation-filters="sRGB">
<feFlood flood-opacity="0" result="BackgroundImageFix"/>
<feBlend mode="normal" in="SourceGraphic" in2="BackgroundImageFix" result="shape"/>
<feGaussianBlur stdDeviation="87.25" result="effect1_foregroundBlur_201_9"/>
</filter>
<filter id="filter1_f_201_9" x="1432.5" y="302.5" width="768" height="805" filterUnits="userSpaceOnUse" color-interpolation-filters="sRGB">
<feFlood flood-opacity="0" result="BackgroundImageFix"/>
<feBlend mode="normal" in="SourceGraphic" in2="BackgroundImageFix" result="shape"/>
<feGaussianBlur stdDeviation="87.25" result="effect1_foregroundBlur_201_9"/>
</filter>
<filter id="filter2_f_201_9" x="-58.4" y="-320.4" width="1197.59" height="1206.13" filterUnits="userSpaceOnUse" color-interpolation-filters="sRGB">
<feFlood flood-opacity="0" result="BackgroundImageFix"/>
<feBlend mode="normal" in="SourceGraphic" in2="BackgroundImageFix" result="shape"/>
<feGaussianBlur stdDeviation="187.7" result="effect1_foregroundBlur_201_9"/>
</filter>
<filter id="filter3_f_201_9" x="1177.1" y="232.1" width="1073.8" height="1075.8" filterUnits="userSpaceOnUse" color-interpolation-filters="sRGB">
<feFlood flood-opacity="0" result="BackgroundImageFix"/>
<feBlend mode="normal" in="SourceGraphic" in2="BackgroundImageFix" result="shape"/>
<feGaussianBlur stdDeviation="149.95" result="effect1_foregroundBlur_201_9"/>
</filter>
<filter id="filter4_f_201_9" x="1617.76" y="650.413" width="456.735" height="369.664" filterUnits="userSpaceOnUse" color-interpolation-filters="sRGB">
<feFlood flood-opacity="0" result="BackgroundImageFix"/>
<feBlend mode="normal" in="SourceGraphic" in2="BackgroundImageFix" result="shape"/>
<feGaussianBlur stdDeviation="62.6" result="effect1_foregroundBlur_201_9"/>
</filter>
<linearGradient id="paint0_linear_201_9" x1="2213.5" y1="-249" x2="-52.5002" y2="1162" gradientUnits="userSpaceOnUse">
<stop stop-color="#4F2653"/>
<stop offset="1" stop-color="#170034"/>
</linearGradient>
<clipPath id="clip0_201_9">
<rect width="1920" height="1080" fill="white"/>
</clipPath>
</defs>
</svg>
