<svg width="36" height="36" viewBox="0 0 36 36" fill="none" xmlns="http://www.w3.org/2000/svg">
<path fill-rule="evenodd" clip-rule="evenodd" d="M24.9625 4.55402C24.8188 4.02048 24.0619 4.02048 23.9182 4.55402C23.6051 5.71709 22.6965 6.6256 21.5335 6.93875C20.9999 7.08241 20.9999 7.83939 21.5335 7.98304C22.6965 8.2962 23.6051 9.20471 23.9182 10.3678C24.0619 10.9013 24.8188 10.9013 24.9625 10.3678C25.2757 9.20471 26.1842 8.2962 27.3472 7.98304C27.8808 7.83939 27.8808 7.08241 27.3472 6.93876C26.1842 6.6256 25.2757 5.71709 24.9625 4.55402ZM11.8798 6.94055C12.2872 5.00743 15.0469 5.00743 15.4543 6.94055L15.7042 8.12603C16.5014 11.9083 19.2746 14.9678 22.9606 16.1315C25.0997 16.8068 25.0997 19.8339 22.9606 20.5092C19.2746 21.6729 16.5014 24.7323 15.7042 28.5147L15.4543 29.7001C15.0469 31.6333 12.2872 31.6333 11.8798 29.7001L11.6299 28.5147C10.8327 24.7323 8.05953 21.6729 4.37345 20.5092C2.23438 19.8339 2.23438 16.8068 4.37345 16.1315C8.05953 14.9678 10.8327 11.9083 11.6299 8.12603L11.8798 6.94055ZM27.8646 18.0924C28.0598 16.8273 29.8823 16.8273 30.0775 18.0924C30.3289 19.7212 31.4545 21.0803 33.008 21.6306L33.4557 21.7892C34.6265 22.204 34.6265 23.8597 33.4557 24.2744L33.008 24.4331C31.4545 24.9834 30.3289 26.3425 30.0775 27.9712C29.8823 29.2363 28.0598 29.2363 27.8646 27.9712C27.6133 26.3425 26.4876 24.9834 24.9342 24.4331L24.4864 24.2744C23.3157 23.8597 23.3157 22.204 24.4864 21.7892L24.9342 21.6306C26.4876 21.0803 27.6133 19.7212 27.8646 18.0924Z" fill="url(#paint0_linear_179_35)"/>
<defs>
<linearGradient id="paint0_linear_179_35" x1="-7.54749" y1="47.0141" x2="115.965" y2="-27.3465" gradientUnits="userSpaceOnUse">
<stop stop-color="#FFC0EF"/>
<stop offset="0.46875" stop-color="#8C1D70"/>
<stop offset="1" stop-color="#1B0336"/>
</linearGradient>
</defs>
</svg>
