<svg width="1920" height="1080" viewBox="0 0 1920 1080" fill="none" xmlns="http://www.w3.org/2000/svg">
<rect width="1920" height="1080" fill="url(#paint0_linear_122_290)"/>
<g clip-path="url(#clip0_122_290)">
<g filter="url(#filter0_f_122_290)">
<path fill-rule="evenodd" clip-rule="evenodd" d="M156.711 0.238799C236.905 -7.05446 216.277 154.809 283.852 198.588C358.839 247.168 482.122 181.228 540.483 248.867C596.329 313.591 558.619 414.95 543.053 498.993C525.161 595.596 542.42 767.31 444.151 768.982C310.925 771.25 281.254 552.913 156.711 505.569C96.8999 482.833 56.0746 612.136 -6.2773 597.757C-61.213 585.088 -60.8779 503.36 -81.0564 450.737C-102.575 394.621 -156.585 333.843 -127.684 281.145C-97.5552 226.209 0.754303 264.314 45.3353 220.279C105.297 161.054 72.7611 7.87352 156.711 0.238799Z" fill="#7D6E9E" fill-opacity="0.61"/>
</g>
<g filter="url(#filter1_f_122_290)">
<path fill-rule="evenodd" clip-rule="evenodd" d="M1780.72 470.142C1828.31 465.817 1816.07 561.798 1856.18 587.758C1900.68 616.565 1973.85 577.464 2008.48 617.573C2041.63 655.952 2019.25 716.056 2010.01 765.892C1999.39 823.175 2009.63 924.998 1951.31 925.99C1872.24 927.334 1854.63 797.865 1780.72 769.791C1745.22 756.309 1720.99 832.983 1683.99 824.457C1651.38 816.945 1651.58 768.482 1639.61 737.277C1626.84 704.001 1594.78 667.961 1611.94 636.713C1629.82 604.137 1688.16 626.732 1714.62 600.621C1750.21 565.501 1730.9 474.669 1780.72 470.142Z" fill="#7D6E9E" fill-opacity="0.61"/>
</g>
<g filter="url(#filter2_f_122_290)">
<path fill-rule="evenodd" clip-rule="evenodd" d="M455.562 114.533C480.534 96.3795 487.666 48.5566 518.535 48.0025C541.65 47.5875 521.355 99.9726 540.449 113.009C568.17 131.936 610.644 111.381 638.591 129.972C666.743 148.701 677.999 183.992 692.829 214.38C715.981 261.821 794.45 330.213 750.797 359.896C692.354 399.637 609.212 282.221 546.147 314.121C496.03 339.472 555.146 437.027 516.937 478.19C488.815 508.485 412.253 514.947 394.286 477.721C361.437 409.656 431.958 325.843 408.706 253.933C399.996 226.993 349.104 280.052 325.376 264.605C307.83 253.181 322.08 222.055 329.932 202.646C337.03 185.1 364.239 179.454 367.376 160.789C371.312 137.366 329.631 107.519 348.37 92.9261C369.333 76.6017 397.34 111.922 423.385 117.172C434.051 119.322 446.761 120.931 455.562 114.533Z" fill="#F40E91"/>
</g>
<g filter="url(#filter3_f_122_290)">
<path fill-rule="evenodd" clip-rule="evenodd" d="M1695.98 525.722C1732.26 528.937 1762.46 550.619 1795.85 565.133C1833.65 581.56 1878.5 586.062 1905.78 616.916C1934.61 649.527 1958.93 695.619 1948.56 737.867C1937.95 781.107 1885.58 797.645 1853.75 828.823C1830.89 851.217 1809.2 872.494 1787.32 895.834C1755.69 929.558 1740.32 983.856 1695.98 997.053C1652.4 1010.02 1602.74 989.167 1566.68 961.498C1531.91 934.821 1518.45 890.083 1503.1 849.068C1489.66 813.173 1485.5 776.104 1482.97 737.867C1480.29 697.226 1468.61 653.786 1487.82 617.858C1507.13 581.745 1547.84 563.068 1585.32 546.478C1620.23 531.028 1657.95 522.352 1695.98 525.722Z" fill="#3B095C"/>
</g>
<g filter="url(#filter4_f_122_290)">
<path fill-rule="evenodd" clip-rule="evenodd" d="M1934.04 878.873C1917.63 883.59 1896.56 869.943 1878.71 871.573C1872.33 872.155 1875.81 882.876 1870.04 884.715C1864.22 886.57 1856.83 881.547 1850.12 880.682C1844.34 879.936 1838.49 879.114 1833.06 879.944C1822.47 881.563 1814.26 888.121 1803.1 887.87C1790.38 887.584 1776.27 885.264 1765.13 878.418C1754.31 871.772 1741.79 860.86 1743.05 850.97C1744.57 839.063 1760.32 833.628 1771.65 827.259C1779.57 822.808 1798.42 827.74 1799.25 819.367C1800.72 804.367 1768.07 786.72 1776.83 774.492C1783.81 764.761 1804.65 787.541 1819.55 791.051C1827.59 792.946 1836.12 792.536 1842.99 790.081C1857.65 784.841 1864.77 766.995 1882.01 768.732C1895.08 770.049 1902.84 785.882 1907.09 796.539C1911.34 807.19 1898.38 817.944 1905.59 827.845C1914.35 839.866 1940.37 839.249 1947.39 851.828C1953.05 861.99 1945.36 875.619 1934.04 878.873Z" fill="#F40E91"/>
</g>
<g style="mix-blend-mode:soft-light" opacity="0.54">
<circle cx="248" cy="652" r="16" fill="white"/>
</g>
<g style="mix-blend-mode:soft-light" opacity="0.54">
<circle cx="1294" cy="850" r="30" fill="white"/>
</g>
<g style="mix-blend-mode:soft-light" opacity="0.54">
<circle cx="1783" cy="700" r="13" fill="white"/>
</g>
<g style="mix-blend-mode:soft-light" opacity="0.54">
<circle cx="1280" cy="110" r="16" fill="white"/>
</g>
<g style="mix-blend-mode:soft-light" opacity="0.54">
<circle cx="327" cy="362" r="10" fill="white"/>
</g>
<g style="mix-blend-mode:soft-light" opacity="0.54">
<circle cx="75" cy="608" r="4" fill="white"/>
</g>
<g style="mix-blend-mode:soft-light" opacity="0.54">
<circle cx="1584" cy="546" r="4" fill="white"/>
</g>
</g>
<circle cx="1599.5" cy="177.5" r="69.5" stroke="white" stroke-width="4"/>
<path d="M1658 177.5C1658 216.21 1631.51 247 1599.5 247C1567.49 247 1541 216.21 1541 177.5C1541 138.79 1567.49 108 1599.5 108C1631.51 108 1658 138.79 1658 177.5Z" stroke="white" stroke-width="4"/>
<path d="M1642 177.5C1642 196.931 1637.09 214.427 1629.27 227.001C1621.42 239.605 1610.85 247 1599.5 247C1588.15 247 1577.58 239.605 1569.73 227.001C1561.91 214.427 1557 196.931 1557 177.5C1557 158.069 1561.91 140.573 1569.73 127.999C1577.58 115.395 1588.15 108 1599.5 108C1610.85 108 1621.42 115.395 1629.27 127.999C1637.09 140.573 1642 158.069 1642 177.5Z" stroke="white" stroke-width="4"/>
<path d="M1618 177.5C1618 197.112 1615.72 214.793 1612.07 227.507C1610.25 233.877 1608.11 238.887 1605.82 242.259C1603.49 245.699 1601.32 247 1599.5 247C1597.68 247 1595.51 245.699 1593.18 242.259C1590.89 238.887 1588.75 233.877 1586.93 227.507C1583.28 214.793 1581 197.112 1581 177.5C1581 157.888 1583.28 140.207 1586.93 127.493C1588.75 121.123 1590.89 116.113 1593.18 112.741C1595.51 109.301 1597.68 108 1599.5 108C1601.32 108 1603.49 109.301 1605.82 112.741C1608.11 116.113 1610.25 121.123 1612.07 127.493C1615.72 140.207 1618 157.888 1618 177.5Z" stroke="white" stroke-width="4"/>
<path d="M1591 108V91C1591 86.0294 1595.03 82 1600 82V82C1604.97 82 1609 86.0294 1609 91V108" stroke="white" stroke-width="4"/>
<path fill-rule="evenodd" clip-rule="evenodd" d="M1598.5 0.147451L1598.5 0L1601.5 -1.31134e-07L1601.5 0.147451C1601.5 0.975878 1600.83 1.64745 1600 1.64745C1599.17 1.64745 1598.5 0.975879 1598.5 0.147451ZM1600 8.47755C1600.83 8.47755 1601.5 9.14912 1601.5 9.97755L1601.5 10.2725C1601.5 11.1009 1600.83 11.7725 1600 11.7725C1599.17 11.7725 1598.5 11.1009 1598.5 10.2725L1598.5 9.97755C1598.5 9.14912 1599.17 8.47755 1600 8.47755ZM1600 18.6025C1600.83 18.6025 1601.5 19.2741 1601.5 20.1025L1601.5 20.3975C1601.5 21.2259 1600.83 21.8975 1600 21.8975C1599.17 21.8975 1598.5 21.2259 1598.5 20.3975L1598.5 20.1025C1598.5 19.2741 1599.17 18.6025 1600 18.6025ZM1600 28.7275C1600.83 28.7275 1601.5 29.3991 1601.5 30.2275L1601.5 30.5225C1601.5 31.3509 1600.83 32.0224 1600 32.0224C1599.17 32.0224 1598.5 31.3509 1598.5 30.5225L1598.5 30.2275C1598.5 29.3991 1599.17 28.7275 1600 28.7275ZM1600 38.8525C1600.83 38.8525 1601.5 39.5241 1601.5 40.3525L1601.5 40.6474C1601.5 41.4759 1600.83 42.1474 1600 42.1474C1599.17 42.1474 1598.5 41.4759 1598.5 40.6474L1598.5 40.3525C1598.5 39.5241 1599.17 38.8525 1600 38.8525ZM1600 48.9776C1600.83 48.9776 1601.5 49.6491 1601.5 50.4776L1601.5 50.7724C1601.5 51.6009 1600.83 52.2724 1600 52.2724C1599.17 52.2724 1598.5 51.6009 1598.5 50.7724L1598.5 50.4776C1598.5 49.6491 1599.17 48.9776 1600 48.9776ZM1600 59.1026C1600.83 59.1026 1601.5 59.7741 1601.5 60.6026L1601.5 60.8974C1601.5 61.7259 1600.83 62.3974 1600 62.3974C1599.17 62.3974 1598.5 61.7259 1598.5 60.8974L1598.5 60.6026C1598.5 59.7741 1599.17 59.1026 1600 59.1026ZM1600 69.2275C1600.83 69.2275 1601.5 69.8991 1601.5 70.7275L1601.5 71.0225C1601.5 71.8509 1600.83 72.5225 1600 72.5225C1599.17 72.5225 1598.5 71.8509 1598.5 71.0225L1598.5 70.7275C1598.5 69.8991 1599.17 69.2275 1600 69.2275ZM1600 79.3526C1600.83 79.3526 1601.5 80.0241 1601.5 80.8526L1601.5 81L1598.5 81L1598.5 80.8526C1598.5 80.0241 1599.17 79.3526 1600 79.3526Z" fill="white"/>
<circle cx="919.675" cy="183.325" r="20.0964" stroke="white" stroke-width="1.15663"/>
<path d="M936.59 183.325C936.59 194.519 928.93 203.422 919.675 203.422C910.419 203.422 902.759 194.519 902.759 183.325C902.759 172.132 910.419 163.229 919.675 163.229C928.93 163.229 936.59 172.132 936.59 183.325Z" stroke="white" stroke-width="1.15663"/>
<path d="M931.964 183.325C931.964 188.944 930.545 194.003 928.282 197.639C926.014 201.283 922.955 203.422 919.675 203.422C916.394 203.422 913.335 201.283 911.067 197.639C908.804 194.003 907.386 188.944 907.386 183.325C907.386 177.707 908.804 172.648 911.067 169.012C913.335 165.367 916.394 163.229 919.675 163.229C922.955 163.229 926.014 165.367 928.282 169.012C930.545 172.648 931.964 177.707 931.964 183.325Z" stroke="white" stroke-width="1.15663"/>
<path d="M925.024 183.325C925.024 188.996 924.364 194.109 923.31 197.785C922.782 199.627 922.164 201.076 921.503 202.051C920.829 203.045 920.201 203.422 919.675 203.422C919.149 203.422 918.52 203.045 917.846 202.051C917.185 201.076 916.567 199.627 916.039 197.785C914.985 194.109 914.325 188.996 914.325 183.325C914.325 177.654 914.985 172.542 916.039 168.866C916.567 167.023 917.185 165.575 917.846 164.6C918.52 163.605 919.149 163.229 919.675 163.229C920.201 163.229 920.829 163.605 921.503 164.6C922.164 165.575 922.782 167.023 923.31 168.866C924.364 172.542 925.024 177.654 925.024 183.325Z" stroke="white" stroke-width="1.15663"/>
<path d="M917.217 163.229V158.313C917.217 156.876 918.382 155.711 919.819 155.711V155.711C921.257 155.711 922.422 156.876 922.422 158.313V163.229" stroke="white" stroke-width="1.15663"/>
<path fill-rule="evenodd" clip-rule="evenodd" d="M919.566 0.0434093L919.566 0L920.434 -3.79183e-08L920.434 0.0434092C920.434 0.282954 920.24 0.477144 920 0.477144C919.76 0.477144 919.566 0.282954 919.566 0.0434093ZM920 2.50363C920.24 2.50363 920.434 2.69781 920.434 2.93736L920.434 3.02418C920.434 3.26372 920.24 3.45791 920 3.45791C919.76 3.45791 919.566 3.26372 919.566 3.02418L919.566 2.93736C919.566 2.69781 919.76 2.50363 920 2.50363ZM920 5.48439C920.24 5.48439 920.434 5.67858 920.434 5.91813L920.434 6.00495C920.434 6.24449 920.24 6.43868 920 6.43868C919.76 6.43868 919.566 6.24449 919.566 6.00495L919.566 5.91813C919.566 5.67858 919.76 5.48439 920 5.48439ZM920 8.46516C920.24 8.46516 920.434 8.65935 920.434 8.8989L920.434 8.98572C920.434 9.22526 920.24 9.41945 920 9.41945C919.76 9.41945 919.566 9.22526 919.566 8.98572L919.566 8.8989C919.566 8.65935 919.76 8.46516 920 8.46516ZM920 11.4459C920.24 11.4459 920.434 11.6401 920.434 11.8797L920.434 11.9665C920.434 12.206 920.24 12.4002 920 12.4002C919.76 12.4002 919.566 12.206 919.566 11.9665L919.566 11.8797C919.566 11.6401 919.76 11.4459 920 11.4459ZM920 14.4267C920.24 14.4267 920.434 14.6209 920.434 14.8604L920.434 14.9473C920.434 15.1868 920.24 15.381 920 15.381C919.76 15.381 919.566 15.1868 919.566 14.9473L919.566 14.8604C919.566 14.6209 919.76 14.4267 920 14.4267ZM920 17.4075C920.24 17.4075 920.434 17.6017 920.434 17.8412L920.434 17.928C920.434 18.1676 920.24 18.3618 920 18.3618C919.76 18.3618 919.566 18.1676 919.566 17.928L919.566 17.8412C919.566 17.6017 919.76 17.4075 920 17.4075ZM920 20.3882C920.24 20.3882 920.434 20.5824 920.434 20.822L920.434 20.9088C920.434 21.1483 920.24 21.3425 920 21.3425C919.76 21.3425 919.566 21.1483 919.566 20.9088L919.566 20.822C919.566 20.5824 919.76 20.3882 920 20.3882ZM920 23.369C920.24 23.369 920.434 23.5632 920.434 23.8027L920.434 23.8896C920.434 24.1291 920.24 24.3233 920 24.3233C919.76 24.3233 919.566 24.1291 919.566 23.8896L919.566 23.8027C919.566 23.5632 919.76 23.369 920 23.369ZM920 26.3498C920.24 26.3498 920.434 26.544 920.434 26.7835L920.434 26.8703C920.434 27.1099 920.24 27.3041 920 27.3041C919.76 27.3041 919.566 27.1099 919.566 26.8703L919.566 26.7835C919.566 26.544 919.76 26.3498 920 26.3498ZM920 29.3306C920.24 29.3306 920.434 29.5247 920.434 29.7643L920.434 29.8511C920.434 30.0907 920.24 30.2848 920 30.2848C919.76 30.2848 919.566 30.0907 919.566 29.8511L919.566 29.7643C919.566 29.5247 919.76 29.3306 920 29.3306ZM920 32.3113C920.24 32.3113 920.434 32.5055 920.434 32.7451L920.434 32.8319C920.434 33.0714 920.24 33.2656 920 33.2656C919.76 33.2656 919.566 33.0714 919.566 32.8319L919.566 32.7451C919.566 32.5055 919.76 32.3113 920 32.3113ZM920 35.2921C920.24 35.2921 920.434 35.4863 920.434 35.7258L920.434 35.8126C920.434 36.0522 920.24 36.2464 920 36.2464C919.76 36.2464 919.566 36.0522 919.566 35.8126L919.566 35.7258C919.566 35.4863 919.76 35.2921 920 35.2921ZM920 38.2729C920.24 38.2729 920.434 38.467 920.434 38.7066L920.434 38.7934C920.434 39.033 920.24 39.2271 920 39.2271C919.76 39.2271 919.566 39.033 919.566 38.7934L919.566 38.7066C919.566 38.467 919.76 38.2729 920 38.2729ZM920 41.2536C920.24 41.2536 920.434 41.4478 920.434 41.6874L920.434 41.7742C920.434 42.0137 920.24 42.2079 920 42.2079C919.76 42.2079 919.566 42.0137 919.566 41.7742L919.566 41.6874C919.566 41.4478 919.76 41.2536 920 41.2536ZM920 44.2344C920.24 44.2344 920.434 44.4286 920.434 44.6681L920.434 44.755C920.434 44.9945 920.24 45.1887 920 45.1887C919.76 45.1887 919.566 44.9945 919.566 44.755L919.566 44.6681C919.566 44.4286 919.76 44.2344 920 44.2344ZM920 47.2152C920.24 47.2152 920.434 47.4094 920.434 47.6489L920.434 47.7357C920.434 47.9753 920.24 48.1695 920 48.1695C919.76 48.1695 919.566 47.9753 919.566 47.7357L919.566 47.6489C919.566 47.4094 919.76 47.2152 920 47.2152ZM920 50.1959C920.24 50.1959 920.434 50.3901 920.434 50.6297L920.434 50.7165C920.434 50.956 920.24 51.1502 920 51.1502C919.76 51.1502 919.566 50.956 919.566 50.7165L919.566 50.6297C919.566 50.3901 919.76 50.1959 920 50.1959ZM920 53.1767C920.24 53.1767 920.434 53.3709 920.434 53.6104L920.434 53.6973C920.434 53.9368 920.24 54.131 920 54.131C919.76 54.131 919.566 53.9368 919.566 53.6973L919.566 53.6104C919.566 53.3709 919.76 53.1767 920 53.1767ZM920 56.1575C920.24 56.1575 920.434 56.3517 920.434 56.5912L920.434 56.678C920.434 56.9176 920.24 57.1118 920 57.1118C919.76 57.1118 919.566 56.9176 919.566 56.678L919.566 56.5912C919.566 56.3517 919.76 56.1575 920 56.1575ZM920 59.1382C920.24 59.1382 920.434 59.3324 920.434 59.572L920.434 59.6588C920.434 59.8983 920.24 60.0925 920 60.0925C919.76 60.0925 919.566 59.8983 919.566 59.6588L919.566 59.572C919.566 59.3324 919.76 59.1382 920 59.1382ZM920 62.119C920.24 62.119 920.434 62.3132 920.434 62.5528L920.434 62.6396C920.434 62.8791 920.24 63.0733 920 63.0733C919.76 63.0733 919.566 62.8791 919.566 62.6396L919.566 62.5528C919.566 62.3132 919.76 62.119 920 62.119ZM920 65.0998C920.24 65.0998 920.434 65.294 920.434 65.5335L920.434 65.6203C920.434 65.8599 920.24 66.0541 920 66.0541C919.76 66.0541 919.566 65.8599 919.566 65.6203L919.566 65.5335C919.566 65.294 919.76 65.0998 920 65.0998ZM920 68.0806C920.24 68.0806 920.434 68.2747 920.434 68.5143L920.434 68.6011C920.434 68.8406 920.24 69.0348 920 69.0348C919.76 69.0348 919.566 68.8406 919.566 68.6011L919.566 68.5143C919.566 68.2747 919.76 68.0806 920 68.0806ZM920 71.0613C920.24 71.0613 920.434 71.2555 920.434 71.4951L920.434 71.5819C920.434 71.8214 920.24 72.0156 920 72.0156C919.76 72.0156 919.566 71.8214 919.566 71.5819L919.566 71.4951C919.566 71.2555 919.76 71.0613 920 71.0613ZM920 74.0421C920.24 74.0421 920.434 74.2363 920.434 74.4758L920.434 74.5626C920.434 74.8022 920.24 74.9964 920 74.9964C919.76 74.9964 919.566 74.8022 919.566 74.5626L919.566 74.4758C919.566 74.2363 919.76 74.0421 920 74.0421ZM920 77.0229C920.24 77.0229 920.434 77.217 920.434 77.4566L920.434 77.5434C920.434 77.7829 920.24 77.9771 920 77.9771C919.76 77.9771 919.566 77.7829 919.566 77.5434L919.566 77.4566C919.566 77.217 919.76 77.0229 920 77.0229ZM920 80.0036C920.24 80.0036 920.434 80.1978 920.434 80.4374L920.434 80.5242C920.434 80.7637 920.24 80.9579 920 80.9579C919.76 80.9579 919.566 80.7637 919.566 80.5242L919.566 80.4374C919.566 80.1978 919.76 80.0036 920 80.0036ZM920 82.9844C920.24 82.9844 920.434 83.1786 920.434 83.4181L920.434 83.5049C920.434 83.7445 920.24 83.9387 920 83.9387C919.76 83.9387 919.566 83.7445 919.566 83.5049L919.566 83.4181C919.566 83.1786 919.76 82.9844 920 82.9844ZM920 85.9652C920.24 85.9652 920.434 86.1593 920.434 86.3989L920.434 86.4857C920.434 86.7252 920.24 86.9194 920 86.9194C919.76 86.9194 919.566 86.7252 919.566 86.4857L919.566 86.3989C919.566 86.1593 919.76 85.9652 920 85.9652ZM920 88.9459C920.24 88.9459 920.434 89.1401 920.434 89.3797L920.434 89.4665C920.434 89.706 920.24 89.9002 920 89.9002C919.76 89.9002 919.566 89.706 919.566 89.4665L919.566 89.3797C919.566 89.1401 919.76 88.9459 920 88.9459ZM920 91.9267C920.24 91.9267 920.434 92.1209 920.434 92.3604L920.434 92.4472C920.434 92.6868 920.24 92.881 920 92.881C919.76 92.881 919.566 92.6868 919.566 92.4472L919.566 92.3604C919.566 92.1209 919.76 91.9267 920 91.9267ZM920 94.9074C920.24 94.9074 920.434 95.1016 920.434 95.3412L920.434 95.428C920.434 95.6675 920.24 95.8617 920 95.8617C919.76 95.8617 919.566 95.6675 919.566 95.428L919.566 95.3412C919.566 95.1016 919.76 94.9074 920 94.9074ZM920 97.8882C920.24 97.8882 920.434 98.0824 920.434 98.3219L920.434 98.4088C920.434 98.6483 920.24 98.8425 920 98.8425C919.76 98.8425 919.566 98.6483 919.566 98.4088L919.566 98.3219C919.566 98.0824 919.76 97.8882 920 97.8882ZM920 100.869C920.24 100.869 920.434 101.063 920.434 101.303L920.434 101.39C920.434 101.629 920.24 101.823 920 101.823C919.76 101.823 919.566 101.629 919.566 101.39L919.566 101.303C919.566 101.063 919.76 100.869 920 100.869ZM920 103.85C920.24 103.85 920.434 104.044 920.434 104.283L920.434 104.37C920.434 104.61 920.24 104.804 920 104.804C919.76 104.804 919.566 104.61 919.566 104.37L919.566 104.283C919.566 104.044 919.76 103.85 920 103.85ZM920 106.831C920.24 106.831 920.434 107.025 920.434 107.264L920.434 107.351C920.434 107.591 920.24 107.785 920 107.785C919.76 107.785 919.566 107.591 919.566 107.351L919.566 107.264C919.566 107.025 919.76 106.831 920 106.831ZM920 109.811C920.24 109.811 920.434 110.005 920.434 110.245L920.434 110.332C920.434 110.571 920.24 110.766 920 110.766C919.76 110.766 919.566 110.571 919.566 110.332L919.566 110.245C919.566 110.005 919.76 109.811 920 109.811ZM920 112.792C920.24 112.792 920.434 112.986 920.434 113.226L920.434 113.313C920.434 113.552 920.24 113.746 920 113.746C919.76 113.746 919.566 113.552 919.566 113.313L919.566 113.226C919.566 112.986 919.76 112.792 920 112.792ZM920 115.773C920.24 115.773 920.434 115.967 920.434 116.207L920.434 116.293C920.434 116.533 920.24 116.727 920 116.727C919.76 116.727 919.566 116.533 919.566 116.293L919.566 116.207C919.566 115.967 919.76 115.773 920 115.773ZM920 118.754C920.24 118.754 920.434 118.948 920.434 119.187L920.434 119.274C920.434 119.514 920.24 119.708 920 119.708C919.76 119.708 919.566 119.514 919.566 119.274L919.566 119.187C919.566 118.948 919.76 118.754 920 118.754ZM920 121.734C920.24 121.734 920.434 121.929 920.434 122.168L920.434 122.255C920.434 122.494 920.24 122.689 920 122.689C919.76 122.689 919.566 122.494 919.566 122.255L919.566 122.168C919.566 121.929 919.76 121.734 920 121.734ZM920 124.715C920.24 124.715 920.434 124.909 920.434 125.149L920.434 125.236C920.434 125.475 920.24 125.669 920 125.669C919.76 125.669 919.566 125.475 919.566 125.236L919.566 125.149C919.566 124.909 919.76 124.715 920 124.715ZM920 127.696C920.24 127.696 920.434 127.89 920.434 128.13L920.434 128.216C920.434 128.456 920.24 128.65 920 128.65C919.76 128.65 919.566 128.456 919.566 128.216L919.566 128.13C919.566 127.89 919.76 127.696 920 127.696ZM920 130.677C920.24 130.677 920.434 130.871 920.434 131.11L920.434 131.197C920.434 131.437 920.24 131.631 920 131.631C919.76 131.631 919.566 131.437 919.566 131.197L919.566 131.11C919.566 130.871 919.76 130.677 920 130.677ZM920 133.657C920.24 133.657 920.434 133.852 920.434 134.091L920.434 134.178C920.434 134.418 920.24 134.612 920 134.612C919.76 134.612 919.566 134.418 919.566 134.178L919.566 134.091C919.566 133.852 919.76 133.657 920 133.657ZM920 136.638C920.24 136.638 920.434 136.832 920.434 137.072L920.434 137.159C920.434 137.398 920.24 137.592 920 137.592C919.76 137.592 919.566 137.398 919.566 137.159L919.566 137.072C919.566 136.832 919.76 136.638 920 136.638ZM920 139.619C920.24 139.619 920.434 139.813 920.434 140.053L920.434 140.14C920.434 140.379 920.24 140.573 920 140.573C919.76 140.573 919.566 140.379 919.566 140.14L919.566 140.053C919.566 139.813 919.76 139.619 920 139.619ZM920 142.6C920.24 142.6 920.434 142.794 920.434 143.033L920.434 143.12C920.434 143.36 920.24 143.554 920 143.554C919.76 143.554 919.566 143.36 919.566 143.12L919.566 143.033C919.566 142.794 919.76 142.6 920 142.6ZM920 145.581C920.24 145.581 920.434 145.775 920.434 146.014L920.434 146.101C920.434 146.341 920.24 146.535 920 146.535C919.76 146.535 919.566 146.341 919.566 146.101L919.566 146.014C919.566 145.775 919.76 145.581 920 145.581ZM920 148.561C920.24 148.561 920.434 148.755 920.434 148.995L920.434 149.082C920.434 149.321 920.24 149.516 920 149.516C919.76 149.516 919.566 149.321 919.566 149.082L919.566 148.995C919.566 148.755 919.76 148.561 920 148.561ZM920 151.542C920.24 151.542 920.434 151.736 920.434 151.976L920.434 152.063C920.434 152.302 920.24 152.496 920 152.496C919.76 152.496 919.566 152.302 919.566 152.063L919.566 151.976C919.566 151.736 919.76 151.542 920 151.542ZM920 154.523C920.24 154.523 920.434 154.717 920.434 154.957L920.434 155L919.566 155L919.566 154.957C919.566 154.717 919.76 154.523 920 154.523Z" fill="white"/>
<g filter="url(#filter5_f_122_290)">
<circle cx="182.775" cy="351.965" r="36.7181" stroke="white" stroke-width="2.11327"/>
<path d="M213.681 351.965C213.681 372.416 199.685 388.683 182.775 388.683C165.864 388.683 151.868 372.416 151.868 351.965C151.868 331.513 165.864 315.246 182.775 315.246C199.685 315.246 213.681 331.513 213.681 351.965Z" stroke="white" stroke-width="2.11327"/>
<path d="M205.228 351.965C205.228 362.23 202.636 371.474 198.502 378.117C194.358 384.776 188.769 388.683 182.775 388.683C176.781 388.683 171.192 384.776 167.048 378.117C162.913 371.474 160.321 362.23 160.321 351.965C160.321 341.699 162.913 332.455 167.048 325.812C171.192 319.153 176.781 315.246 182.775 315.246C188.769 315.246 194.358 319.153 198.502 325.812C202.636 332.455 205.228 341.699 205.228 351.965Z" stroke="white" stroke-width="2.11327"/>
<path d="M192.549 351.965C192.549 362.326 191.343 371.667 189.417 378.384C188.452 381.75 187.323 384.397 186.116 386.178C184.884 387.995 183.736 388.683 182.775 388.683C181.814 388.683 180.666 387.995 179.434 386.178C178.226 384.397 177.097 381.75 176.132 378.384C174.206 371.667 173.001 362.326 173.001 351.965C173.001 341.603 174.206 332.262 176.132 325.545C177.097 322.179 178.226 319.532 179.434 317.751C180.666 315.934 181.814 315.246 182.775 315.246C183.736 315.246 184.884 315.934 186.116 317.751C187.323 319.532 188.452 322.179 189.417 325.545C191.343 332.262 192.549 341.603 192.549 351.965Z" stroke="white" stroke-width="2.11327"/>
<path d="M178.284 315.247V306.265C178.284 303.639 180.413 301.51 183.039 301.51V301.51C185.665 301.51 187.794 303.639 187.794 306.265V315.247" stroke="white" stroke-width="2.11327"/>
<path fill-rule="evenodd" clip-rule="evenodd" d="M181.898 0.0796874L181.898 0L184.205 -1.00805e-07L184.205 0.0796873C184.205 0.716513 183.688 1.23276 183.051 1.23276C182.415 1.23276 181.898 0.716513 181.898 0.0796874ZM183.051 4.2391C183.688 4.2391 184.205 4.75535 184.205 5.39218L184.205 5.55155C184.205 6.18838 183.688 6.70463 183.051 6.70463C182.415 6.70463 181.898 6.18838 181.898 5.55155L181.898 5.39218C181.898 4.75535 182.415 4.2391 183.051 4.2391ZM183.051 9.71097C183.688 9.71097 184.205 10.2272 184.205 10.864L184.205 11.0234C184.205 11.6602 183.688 12.1765 183.051 12.1765C182.415 12.1765 181.898 11.6602 181.898 11.0234L181.898 10.864C181.898 10.2272 182.415 9.71097 183.051 9.71097ZM183.051 15.1828C183.688 15.1828 184.205 15.6991 184.205 16.3359L184.205 16.4953C184.205 17.1321 183.688 17.6484 183.051 17.6484C182.415 17.6484 181.898 17.1321 181.898 16.4953L181.898 16.3359C181.898 15.6991 182.415 15.1828 183.051 15.1828ZM183.051 20.6547C183.688 20.6547 184.205 21.1709 184.205 21.8078L184.205 21.9671C184.205 22.604 183.688 23.1202 183.051 23.1202C182.415 23.1202 181.898 22.604 181.898 21.9671L181.898 21.8078C181.898 21.1709 182.415 20.6547 183.051 20.6547ZM183.051 26.1266C183.688 26.1266 184.205 26.6428 184.205 27.2796L184.205 27.439C184.205 28.0758 183.688 28.5921 183.051 28.5921C182.415 28.5921 181.898 28.0758 181.898 27.439L181.898 27.2796C181.898 26.6428 182.415 26.1266 183.051 26.1266ZM183.051 31.5984C183.688 31.5984 184.205 32.1147 184.205 32.7515L184.205 32.9109C184.205 33.5477 183.688 34.064 183.051 34.064C182.415 34.064 181.898 33.5477 181.898 32.9109L181.898 32.7515C181.898 32.1147 182.415 31.5984 183.051 31.5984ZM183.051 37.0703C183.688 37.0703 184.205 37.5865 184.205 38.2234L184.205 38.3827C184.205 39.0196 183.688 39.5358 183.051 39.5358C182.415 39.5358 181.898 39.0196 181.898 38.3827L181.898 38.2234C181.898 37.5865 182.415 37.0703 183.051 37.0703ZM183.051 42.5422C183.688 42.5422 184.205 43.0584 184.205 43.6952L184.205 43.8546C184.205 44.4914 183.688 45.0077 183.051 45.0077C182.415 45.0077 181.898 44.4914 181.898 43.8546L181.898 43.6952C181.898 43.0584 182.415 42.5422 183.051 42.5422ZM183.051 48.014C183.688 48.014 184.205 48.5303 184.205 49.1671L184.205 49.3265C184.205 49.9633 183.688 50.4795 183.051 50.4795C182.415 50.4795 181.898 49.9633 181.898 49.3265L181.898 49.1671C181.898 48.5303 182.415 48.014 183.051 48.014ZM183.051 53.4859C183.688 53.4859 184.205 54.0021 184.205 54.639L184.205 54.7983C184.205 55.4352 183.688 55.9514 183.051 55.9514C182.415 55.9514 181.898 55.4352 181.898 54.7983L181.898 54.639C181.898 54.0021 182.415 53.4859 183.051 53.4859ZM183.051 58.9577C183.688 58.9577 184.205 59.474 184.205 60.1108L184.205 60.2702C184.205 60.907 183.688 61.4233 183.051 61.4233C182.415 61.4233 181.898 60.907 181.898 60.2702L181.898 60.1108C181.898 59.474 182.415 58.9577 183.051 58.9577ZM183.051 64.4296C183.688 64.4296 184.205 64.9459 184.205 65.5827L184.205 65.7421C184.205 66.3789 183.688 66.8951 183.051 66.8951C182.415 66.8951 181.898 66.3789 181.898 65.7421L181.898 65.5827C181.898 64.9459 182.415 64.4296 183.051 64.4296ZM183.051 69.9015C183.688 69.9015 184.205 70.4177 184.205 71.0546L184.205 71.2139C184.205 71.8508 183.688 72.367 183.051 72.367C182.415 72.367 181.898 71.8508 181.898 71.2139L181.898 71.0546C181.898 70.4177 182.415 69.9015 183.051 69.9015ZM183.051 75.3733C183.688 75.3733 184.205 75.8896 184.205 76.5264L184.205 76.6858C184.205 77.3226 183.688 77.8389 183.051 77.8389C182.415 77.8389 181.898 77.3226 181.898 76.6858L181.898 76.5264C181.898 75.8896 182.415 75.3733 183.051 75.3733ZM183.051 80.8452C183.688 80.8452 184.205 81.3615 184.205 81.9983L184.205 82.1577C184.205 82.7945 183.688 83.3107 183.051 83.3107C182.415 83.3107 181.898 82.7945 181.898 82.1577L181.898 81.9983C181.898 81.3615 182.415 80.8452 183.051 80.8452ZM183.051 86.3171C183.688 86.3171 184.205 86.8333 184.205 87.4702L184.205 87.6295C184.205 88.2664 183.688 88.7826 183.051 88.7826C182.415 88.7826 181.898 88.2664 181.898 87.6295L181.898 87.4702C181.898 86.8333 182.415 86.3171 183.051 86.3171ZM183.051 91.789C183.688 91.789 184.205 92.3052 184.205 92.942L184.205 93.1014C184.205 93.7382 183.688 94.2545 183.051 94.2545C182.415 94.2545 181.898 93.7382 181.898 93.1014L181.898 92.942C181.898 92.3052 182.415 91.789 183.051 91.789ZM183.051 97.2608C183.688 97.2608 184.205 97.7771 184.205 98.4139L184.205 98.5733C184.205 99.2101 183.688 99.7264 183.051 99.7264C182.415 99.7264 181.898 99.2101 181.898 98.5733L181.898 98.4139C181.898 97.7771 182.415 97.2608 183.051 97.2608ZM183.051 102.733C183.688 102.733 184.205 103.249 184.205 103.886L184.205 104.045C184.205 104.682 183.688 105.198 183.051 105.198C182.415 105.198 181.898 104.682 181.898 104.045L181.898 103.886C181.898 103.249 182.415 102.733 183.051 102.733ZM183.051 108.205C183.688 108.205 184.205 108.721 184.205 109.358L184.205 109.517C184.205 110.154 183.688 110.67 183.051 110.67C182.415 110.67 181.898 110.154 181.898 109.517L181.898 109.358C181.898 108.721 182.415 108.205 183.051 108.205ZM183.051 113.676C183.688 113.676 184.205 114.193 184.205 114.83L184.205 114.989C184.205 115.626 183.688 116.142 183.051 116.142C182.415 116.142 181.898 115.626 181.898 114.989L181.898 114.83C181.898 114.193 182.415 113.676 183.051 113.676ZM183.051 119.148C183.688 119.148 184.205 119.665 184.205 120.301L184.205 120.461C184.205 121.098 183.688 121.614 183.051 121.614C182.415 121.614 181.898 121.098 181.898 120.461L181.898 120.301C181.898 119.665 182.415 119.148 183.051 119.148ZM183.051 124.62C183.688 124.62 184.205 125.136 184.205 125.773L184.205 125.933C184.205 126.569 183.688 127.086 183.051 127.086C182.415 127.086 181.898 126.569 181.898 125.933L181.898 125.773C181.898 125.136 182.415 124.62 183.051 124.62ZM183.051 130.092C183.688 130.092 184.205 130.608 184.205 131.245L184.205 131.404C184.205 132.041 183.688 132.558 183.051 132.558C182.415 132.558 181.898 132.041 181.898 131.404L181.898 131.245C181.898 130.608 182.415 130.092 183.051 130.092ZM183.051 135.564C183.688 135.564 184.205 136.08 184.205 136.717L184.205 136.876C184.205 137.513 183.688 138.029 183.051 138.029C182.415 138.029 181.898 137.513 181.898 136.876L181.898 136.717C181.898 136.08 182.415 135.564 183.051 135.564ZM183.051 141.036C183.688 141.036 184.205 141.552 184.205 142.189L184.205 142.348C184.205 142.985 183.688 143.501 183.051 143.501C182.415 143.501 181.898 142.985 181.898 142.348L181.898 142.189C181.898 141.552 182.415 141.036 183.051 141.036ZM183.051 146.508C183.688 146.508 184.205 147.024 184.205 147.661L184.205 147.82C184.205 148.457 183.688 148.973 183.051 148.973C182.415 148.973 181.898 148.457 181.898 147.82L181.898 147.661C181.898 147.024 182.415 146.508 183.051 146.508ZM183.051 151.98C183.688 151.98 184.205 152.496 184.205 153.133L184.205 153.292C184.205 153.929 183.688 154.445 183.051 154.445C182.415 154.445 181.898 153.929 181.898 153.292L181.898 153.133C181.898 152.496 182.415 151.98 183.051 151.98ZM183.051 157.451C183.688 157.451 184.205 157.968 184.205 158.604L184.205 158.764C184.205 159.401 183.688 159.917 183.051 159.917C182.415 159.917 181.898 159.401 181.898 158.764L181.898 158.604C181.898 157.968 182.415 157.451 183.051 157.451ZM183.051 162.923C183.688 162.923 184.205 163.439 184.205 164.076L184.205 164.236C184.205 164.872 183.688 165.389 183.051 165.389C182.415 165.389 181.898 164.872 181.898 164.236L181.898 164.076C181.898 163.439 182.415 162.923 183.051 162.923ZM183.051 168.395C183.688 168.395 184.205 168.911 184.205 169.548L184.205 169.708C184.205 170.344 183.688 170.861 183.051 170.861C182.415 170.861 181.898 170.344 181.898 169.708L181.898 169.548C181.898 168.911 182.415 168.395 183.051 168.395ZM183.051 173.867C183.688 173.867 184.205 174.383 184.205 175.02L184.205 175.179C184.205 175.816 183.688 176.332 183.051 176.332C182.415 176.332 181.898 175.816 181.898 175.179L181.898 175.02C181.898 174.383 182.415 173.867 183.051 173.867ZM183.051 179.339C183.688 179.339 184.205 179.855 184.205 180.492L184.205 180.651C184.205 181.288 183.688 181.804 183.051 181.804C182.415 181.804 181.898 181.288 181.898 180.651L181.898 180.492C181.898 179.855 182.415 179.339 183.051 179.339ZM183.051 184.811C183.688 184.811 184.205 185.327 184.205 185.964L184.205 186.123C184.205 186.76 183.688 187.276 183.051 187.276C182.415 187.276 181.898 186.76 181.898 186.123L181.898 185.964C181.898 185.327 182.415 184.811 183.051 184.811ZM183.051 190.283C183.688 190.283 184.205 190.799 184.205 191.436L184.205 191.595C184.205 192.232 183.688 192.748 183.051 192.748C182.415 192.748 181.898 192.232 181.898 191.595L181.898 191.436C181.898 190.799 182.415 190.283 183.051 190.283ZM183.051 195.754C183.688 195.754 184.205 196.271 184.205 196.907L184.205 197.067C184.205 197.704 183.688 198.22 183.051 198.22C182.415 198.22 181.898 197.704 181.898 197.067L181.898 196.907C181.898 196.271 182.415 195.754 183.051 195.754ZM183.051 201.226C183.688 201.226 184.205 201.743 184.205 202.379L184.205 202.539C184.205 203.176 183.688 203.692 183.051 203.692C182.415 203.692 181.898 203.176 181.898 202.539L181.898 202.379C181.898 201.743 182.415 201.226 183.051 201.226ZM183.051 206.698C183.688 206.698 184.205 207.214 184.205 207.851L184.205 208.011C184.205 208.647 183.688 209.164 183.051 209.164C182.415 209.164 181.898 208.647 181.898 208.011L181.898 207.851C181.898 207.214 182.415 206.698 183.051 206.698ZM183.051 212.17C183.688 212.17 184.205 212.686 184.205 213.323L184.205 213.482C184.205 214.119 183.688 214.636 183.051 214.636C182.415 214.636 181.898 214.119 181.898 213.482L181.898 213.323C181.898 212.686 182.415 212.17 183.051 212.17ZM183.051 217.642C183.688 217.642 184.205 218.158 184.205 218.795L184.205 218.954C184.205 219.591 183.688 220.107 183.051 220.107C182.415 220.107 181.898 219.591 181.898 218.954L181.898 218.795C181.898 218.158 182.415 217.642 183.051 217.642ZM183.051 223.114C183.688 223.114 184.205 223.63 184.205 224.267L184.205 224.426C184.205 225.063 183.688 225.579 183.051 225.579C182.415 225.579 181.898 225.063 181.898 224.426L181.898 224.267C181.898 223.63 182.415 223.114 183.051 223.114ZM183.051 228.586C183.688 228.586 184.205 229.102 184.205 229.739L184.205 229.898C184.205 230.535 183.688 231.051 183.051 231.051C182.415 231.051 181.898 230.535 181.898 229.898L181.898 229.739C181.898 229.102 182.415 228.586 183.051 228.586ZM183.051 234.057C183.688 234.057 184.205 234.574 184.205 235.211L184.205 235.37C184.205 236.007 183.688 236.523 183.051 236.523C182.415 236.523 181.898 236.007 181.898 235.37L181.898 235.211C181.898 234.574 182.415 234.057 183.051 234.057ZM183.051 239.529C183.688 239.529 184.205 240.046 184.205 240.682L184.205 240.842C184.205 241.479 183.688 241.995 183.051 241.995C182.415 241.995 181.898 241.479 181.898 240.842L181.898 240.682C181.898 240.046 182.415 239.529 183.051 239.529ZM183.051 245.001C183.688 245.001 184.205 245.517 184.205 246.154L184.205 246.314C184.205 246.95 183.688 247.467 183.051 247.467C182.415 247.467 181.898 246.95 181.898 246.314L181.898 246.154C181.898 245.517 182.415 245.001 183.051 245.001ZM183.051 250.473C183.688 250.473 184.205 250.989 184.205 251.626L184.205 251.785C184.205 252.422 183.688 252.939 183.051 252.939C182.415 252.939 181.898 252.422 181.898 251.785L181.898 251.626C181.898 250.989 182.415 250.473 183.051 250.473ZM183.051 255.945C183.688 255.945 184.205 256.461 184.205 257.098L184.205 257.257C184.205 257.894 183.688 258.41 183.051 258.41C182.415 258.41 181.898 257.894 181.898 257.257L181.898 257.098C181.898 256.461 182.415 255.945 183.051 255.945ZM183.051 261.417C183.688 261.417 184.205 261.933 184.205 262.57L184.205 262.729C184.205 263.366 183.688 263.882 183.051 263.882C182.415 263.882 181.898 263.366 181.898 262.729L181.898 262.57C181.898 261.933 182.415 261.417 183.051 261.417ZM183.051 266.889C183.688 266.889 184.205 267.405 184.205 268.042L184.205 268.201C184.205 268.838 183.688 269.354 183.051 269.354C182.415 269.354 181.898 268.838 181.898 268.201L181.898 268.042C181.898 267.405 182.415 266.889 183.051 266.889ZM183.051 272.36C183.688 272.36 184.205 272.877 184.205 273.514L184.205 273.673C184.205 274.31 183.688 274.826 183.051 274.826C182.415 274.826 181.898 274.31 181.898 273.673L181.898 273.514C181.898 272.877 182.415 272.36 183.051 272.36ZM183.051 277.832C183.688 277.832 184.205 278.349 184.205 278.985L184.205 279.145C184.205 279.782 183.688 280.298 183.051 280.298C182.415 280.298 181.898 279.782 181.898 279.145L181.898 278.985C181.898 278.349 182.415 277.832 183.051 277.832ZM183.051 283.304C183.688 283.304 184.205 283.82 184.205 284.457L184.205 284.617C184.205 285.253 183.688 285.77 183.051 285.77C182.415 285.77 181.898 285.253 181.898 284.617L181.898 284.457C181.898 283.82 182.415 283.304 183.051 283.304ZM183.051 288.776C183.688 288.776 184.205 289.292 184.205 289.929L184.205 290.089C184.205 290.725 183.688 291.242 183.051 291.242C182.415 291.242 181.898 290.725 181.898 290.089L181.898 289.929C181.898 289.292 182.415 288.776 183.051 288.776ZM183.051 294.248C183.688 294.248 184.205 294.764 184.205 295.401L184.205 295.56C184.205 296.197 183.688 296.713 183.051 296.713C182.415 296.713 181.898 296.197 181.898 295.56L181.898 295.401C181.898 294.764 182.415 294.248 183.051 294.248ZM183.051 299.72C183.688 299.72 184.205 300.236 184.205 300.873L184.205 300.953L181.898 300.953L181.898 300.873C181.898 300.236 182.415 299.72 183.051 299.72Z" fill="white"/>
</g>
<path d="M1496.85 335.857C1496.89 335.681 1496.96 335.602 1497.02 335.556C1497.09 335.501 1497.2 335.458 1497.34 335.458C1497.47 335.457 1497.58 335.498 1497.66 335.553C1497.72 335.598 1497.79 335.676 1497.83 335.852L1504.53 366.857C1505.72 372.324 1509.75 376.73 1515.1 378.386L1537.76 385.411C1539.16 385.845 1539.17 387.823 1537.77 388.272L1515.19 395.534C1509.86 397.246 1505.87 401.694 1504.75 407.173L1498.37 438.247C1498.33 438.423 1498.26 438.502 1498.2 438.547C1498.13 438.603 1498.01 438.645 1497.88 438.646C1497.74 438.647 1497.63 438.606 1497.56 438.551C1497.5 438.506 1497.43 438.427 1497.39 438.252L1490.68 407.247C1489.5 401.78 1485.46 397.374 1480.12 395.718L1457.46 388.693C1456.06 388.259 1456.05 386.281 1457.44 385.832L1480.03 378.57C1485.36 376.858 1489.35 372.41 1490.47 366.931L1496.85 335.857Z" fill="white" stroke="white" stroke-width="3"/>
<path d="M1506.26 374.85L1506.45 375.706L1507.28 375.965L1542.3 386.818L1507.4 398.037L1506.57 398.305L1506.39 399.163L1497.89 440.571L1488.95 399.254L1488.77 398.398L1487.93 398.139L1452.92 387.286L1487.82 376.067L1488.65 375.799L1488.83 374.941L1497.33 333.533L1506.26 374.85Z" fill="white" stroke="white" stroke-width="3"/>
<path d="M1470.23 357.805L1498.46 375.297L1526.7 357.805L1509.2 386.037L1526.7 414.269L1498.46 396.777L1470.23 414.269L1487.72 386.037L1470.23 357.805Z" fill="white"/>
<circle cx="1498" cy="326" r="7" stroke="white" stroke-width="4"/>
<path fill-rule="evenodd" clip-rule="evenodd" d="M1496.5 0.148362L1496.5 0L1499.5 -1.31134e-07L1499.5 0.148362C1499.5 0.976789 1498.83 1.64836 1498 1.64836C1497.17 1.64836 1496.5 0.976789 1496.5 0.148362ZM1498 8.53914C1498.83 8.53914 1499.5 9.21071 1499.5 10.0391L1499.5 10.3359C1499.5 11.1643 1498.83 11.8359 1498 11.8359C1497.17 11.8359 1496.5 11.1643 1496.5 10.3359L1496.5 10.0391C1496.5 9.21071 1497.17 8.53914 1498 8.53914ZM1498 18.7266C1498.83 18.7266 1499.5 19.3982 1499.5 20.2266L1499.5 20.5234C1499.5 21.3518 1498.83 22.0234 1498 22.0234C1497.17 22.0234 1496.5 21.3518 1496.5 20.5234L1496.5 20.2266C1496.5 19.3982 1497.17 18.7266 1498 18.7266ZM1498 28.9141C1498.83 28.9141 1499.5 29.5857 1499.5 30.4141L1499.5 30.7109C1499.5 31.5393 1498.83 32.2109 1498 32.2109C1497.17 32.2109 1496.5 31.5393 1496.5 30.7109L1496.5 30.4141C1496.5 29.5857 1497.17 28.9141 1498 28.9141ZM1498 39.1016C1498.83 39.1016 1499.5 39.7732 1499.5 40.6016L1499.5 40.8984C1499.5 41.7268 1498.83 42.3984 1498 42.3984C1497.17 42.3984 1496.5 41.7268 1496.5 40.8984L1496.5 40.6016C1496.5 39.7732 1497.17 39.1016 1498 39.1016ZM1498 49.2891C1498.83 49.2891 1499.5 49.9607 1499.5 50.7891L1499.5 51.0859C1499.5 51.9143 1498.83 52.5859 1498 52.5859C1497.17 52.5859 1496.5 51.9143 1496.5 51.0859L1496.5 50.7891C1496.5 49.9607 1497.17 49.2891 1498 49.2891ZM1498 59.4766C1498.83 59.4766 1499.5 60.1482 1499.5 60.9766L1499.5 61.2734C1499.5 62.1018 1498.83 62.7734 1498 62.7734C1497.17 62.7734 1496.5 62.1018 1496.5 61.2734L1496.5 60.9766C1496.5 60.1482 1497.17 59.4766 1498 59.4766ZM1498 69.6641C1498.83 69.6641 1499.5 70.3357 1499.5 71.1641L1499.5 71.4609C1499.5 72.2893 1498.83 72.9609 1498 72.9609C1497.17 72.9609 1496.5 72.2893 1496.5 71.4609L1496.5 71.1641C1496.5 70.3357 1497.17 69.6641 1498 69.6641ZM1498 79.8516C1498.83 79.8516 1499.5 80.5232 1499.5 81.3516L1499.5 81.6484C1499.5 82.4768 1498.83 83.1484 1498 83.1484C1497.17 83.1484 1496.5 82.4768 1496.5 81.6484L1496.5 81.3516C1496.5 80.5232 1497.17 79.8516 1498 79.8516ZM1498 90.0391C1498.83 90.0391 1499.5 90.7107 1499.5 91.5391L1499.5 91.8359C1499.5 92.6643 1498.83 93.3359 1498 93.3359C1497.17 93.3359 1496.5 92.6643 1496.5 91.8359L1496.5 91.5391C1496.5 90.7107 1497.17 90.0391 1498 90.0391ZM1498 100.227C1498.83 100.227 1499.5 100.898 1499.5 101.727L1499.5 102.023C1499.5 102.852 1498.83 103.523 1498 103.523C1497.17 103.523 1496.5 102.852 1496.5 102.023L1496.5 101.727C1496.5 100.898 1497.17 100.227 1498 100.227ZM1498 110.414C1498.83 110.414 1499.5 111.086 1499.5 111.914L1499.5 112.211C1499.5 113.039 1498.83 113.711 1498 113.711C1497.17 113.711 1496.5 113.039 1496.5 112.211L1496.5 111.914C1496.5 111.086 1497.17 110.414 1498 110.414ZM1498 120.602C1498.83 120.602 1499.5 121.273 1499.5 122.102L1499.5 122.398C1499.5 123.227 1498.83 123.898 1498 123.898C1497.17 123.898 1496.5 123.227 1496.5 122.398L1496.5 122.102C1496.5 121.273 1497.17 120.602 1498 120.602ZM1498 130.789C1498.83 130.789 1499.5 131.461 1499.5 132.289L1499.5 132.586C1499.5 133.414 1498.83 134.086 1498 134.086C1497.17 134.086 1496.5 133.414 1496.5 132.586L1496.5 132.289C1496.5 131.461 1497.17 130.789 1498 130.789ZM1498 140.977C1498.83 140.977 1499.5 141.648 1499.5 142.477L1499.5 142.773C1499.5 143.602 1498.83 144.273 1498 144.273C1497.17 144.273 1496.5 143.602 1496.5 142.773L1496.5 142.477C1496.5 141.648 1497.17 140.977 1498 140.977ZM1498 151.164C1498.83 151.164 1499.5 151.836 1499.5 152.664L1499.5 152.961C1499.5 153.789 1498.83 154.461 1498 154.461C1497.17 154.461 1496.5 153.789 1496.5 152.961L1496.5 152.664C1496.5 151.836 1497.17 151.164 1498 151.164ZM1498 161.352C1498.83 161.352 1499.5 162.023 1499.5 162.852L1499.5 163.148C1499.5 163.977 1498.83 164.648 1498 164.648C1497.17 164.648 1496.5 163.977 1496.5 163.148L1496.5 162.852C1496.5 162.023 1497.17 161.352 1498 161.352ZM1498 171.539C1498.83 171.539 1499.5 172.211 1499.5 173.039L1499.5 173.336C1499.5 174.164 1498.83 174.836 1498 174.836C1497.17 174.836 1496.5 174.164 1496.5 173.336L1496.5 173.039C1496.5 172.211 1497.17 171.539 1498 171.539ZM1498 181.727C1498.83 181.727 1499.5 182.398 1499.5 183.227L1499.5 183.523C1499.5 184.352 1498.83 185.023 1498 185.023C1497.17 185.023 1496.5 184.352 1496.5 183.523L1496.5 183.227C1496.5 182.398 1497.17 181.727 1498 181.727ZM1498 191.914C1498.83 191.914 1499.5 192.586 1499.5 193.414L1499.5 193.711C1499.5 194.539 1498.83 195.211 1498 195.211C1497.17 195.211 1496.5 194.539 1496.5 193.711L1496.5 193.414C1496.5 192.586 1497.17 191.914 1498 191.914ZM1498 202.102C1498.83 202.102 1499.5 202.773 1499.5 203.602L1499.5 203.898C1499.5 204.727 1498.83 205.398 1498 205.398C1497.17 205.398 1496.5 204.727 1496.5 203.898L1496.5 203.602C1496.5 202.773 1497.17 202.102 1498 202.102ZM1498 212.289C1498.83 212.289 1499.5 212.961 1499.5 213.789L1499.5 214.086C1499.5 214.914 1498.83 215.586 1498 215.586C1497.17 215.586 1496.5 214.914 1496.5 214.086L1496.5 213.789C1496.5 212.961 1497.17 212.289 1498 212.289ZM1498 222.477C1498.83 222.477 1499.5 223.148 1499.5 223.977L1499.5 224.273C1499.5 225.102 1498.83 225.773 1498 225.773C1497.17 225.773 1496.5 225.102 1496.5 224.273L1496.5 223.977C1496.5 223.148 1497.17 222.477 1498 222.477ZM1498 232.664C1498.83 232.664 1499.5 233.336 1499.5 234.164L1499.5 234.461C1499.5 235.289 1498.83 235.961 1498 235.961C1497.17 235.961 1496.5 235.289 1496.5 234.461L1496.5 234.164C1496.5 233.336 1497.17 232.664 1498 232.664ZM1498 242.852C1498.83 242.852 1499.5 243.523 1499.5 244.352L1499.5 244.648C1499.5 245.477 1498.83 246.148 1498 246.148C1497.17 246.148 1496.5 245.477 1496.5 244.648L1496.5 244.352C1496.5 243.523 1497.17 242.852 1498 242.852ZM1498 253.039C1498.83 253.039 1499.5 253.711 1499.5 254.539L1499.5 254.836C1499.5 255.664 1498.83 256.336 1498 256.336C1497.17 256.336 1496.5 255.664 1496.5 254.836L1496.5 254.539C1496.5 253.711 1497.17 253.039 1498 253.039ZM1498 263.227C1498.83 263.227 1499.5 263.898 1499.5 264.727L1499.5 265.023C1499.5 265.852 1498.83 266.523 1498 266.523C1497.17 266.523 1496.5 265.852 1496.5 265.023L1496.5 264.727C1496.5 263.898 1497.17 263.227 1498 263.227ZM1498 273.414C1498.83 273.414 1499.5 274.086 1499.5 274.914L1499.5 275.211C1499.5 276.039 1498.83 276.711 1498 276.711C1497.17 276.711 1496.5 276.039 1496.5 275.211L1496.5 274.914C1496.5 274.086 1497.17 273.414 1498 273.414ZM1498 283.602C1498.83 283.602 1499.5 284.273 1499.5 285.102L1499.5 285.398C1499.5 286.227 1498.83 286.898 1498 286.898C1497.17 286.898 1496.5 286.227 1496.5 285.398L1496.5 285.102C1496.5 284.273 1497.17 283.602 1498 283.602ZM1498 293.789C1498.83 293.789 1499.5 294.461 1499.5 295.289L1499.5 295.586C1499.5 296.414 1498.83 297.086 1498 297.086C1497.17 297.086 1496.5 296.414 1496.5 295.586L1496.5 295.289C1496.5 294.461 1497.17 293.789 1498 293.789ZM1498 303.977C1498.83 303.977 1499.5 304.648 1499.5 305.477L1499.5 305.773C1499.5 306.602 1498.83 307.273 1498 307.273C1497.17 307.273 1496.5 306.602 1496.5 305.773L1496.5 305.477C1496.5 304.648 1497.17 303.977 1498 303.977ZM1498 314.164C1498.83 314.164 1499.5 314.836 1499.5 315.664L1499.5 315.961C1499.5 316.789 1498.83 317.461 1498 317.461C1497.17 317.461 1496.5 316.789 1496.5 315.961L1496.5 315.664C1496.5 314.836 1497.17 314.164 1498 314.164ZM1498 324.352C1498.83 324.352 1499.5 325.023 1499.5 325.852L1499.5 326L1496.5 326L1496.5 325.852C1496.5 325.023 1497.17 324.352 1498 324.352Z" fill="white"/>
<g filter="url(#filter6_f_122_290)">
<path fill-rule="evenodd" clip-rule="evenodd" d="M1658 0.149827L1658 0L1660 -8.74228e-08L1660 0.149827C1660 0.702112 1659.55 1.14983 1659 1.14983C1658.45 1.14983 1658 0.702112 1658 0.149827ZM1659 9.13831C1659.55 9.13831 1660 9.58602 1660 10.1383L1660 10.438C1660 10.9902 1659.55 11.438 1659 11.438C1658.45 11.438 1658 10.9902 1658 10.438L1658 10.1383C1658 9.58602 1658.45 9.13831 1659 9.13831ZM1659 19.4264C1659.55 19.4264 1660 19.8742 1660 20.4264L1660 20.7261C1660 21.2784 1659.55 21.7261 1659 21.7261C1658.45 21.7261 1658 21.2784 1658 20.7261L1658 20.4264C1658 19.8742 1658.45 19.4264 1659 19.4264ZM1659 29.7146C1659.55 29.7146 1660 30.1623 1660 30.7146L1660 31.0142C1660 31.5665 1659.55 32.0142 1659 32.0142C1658.45 32.0142 1658 31.5665 1658 31.0142L1658 30.7146C1658 30.1623 1658.45 29.7146 1659 29.7146ZM1659 40.0027C1659.55 40.0027 1660 40.4504 1660 41.0027L1660 41.3024C1660 41.8547 1659.55 42.3024 1659 42.3024C1658.45 42.3024 1658 41.8547 1658 41.3024L1658 41.0027C1658 40.4504 1658.45 40.0027 1659 40.0027ZM1659 50.2908C1659.55 50.2908 1660 50.7386 1660 51.2908L1660 51.5905C1660 52.1428 1659.55 52.5905 1659 52.5905C1658.45 52.5905 1658 52.1428 1658 51.5905L1658 51.2908C1658 50.7386 1658.45 50.2908 1659 50.2908ZM1659 60.579C1659.55 60.579 1660 61.0267 1660 61.579L1660 61.8786C1660 62.4309 1659.55 62.8786 1659 62.8786C1658.45 62.8786 1658 62.4309 1658 61.8786L1658 61.579C1658 61.0267 1658.45 60.579 1659 60.579ZM1659 70.8671C1659.55 70.8671 1660 71.3148 1660 71.8671L1660 72.1668C1660 72.7191 1659.55 73.1668 1659 73.1668C1658.45 73.1668 1658 72.7191 1658 72.1668L1658 71.8671C1658 71.3148 1658.45 70.8671 1659 70.8671ZM1659 81.1553C1659.55 81.1553 1660 81.603 1660 82.1553L1660 82.4549C1660 83.0072 1659.55 83.4549 1659 83.4549C1658.45 83.4549 1658 83.0072 1658 82.4549L1658 82.1553C1658 81.603 1658.45 81.1553 1659 81.1553ZM1659 91.4434C1659.55 91.4434 1660 91.8911 1660 92.4434L1660 92.743C1660 93.2953 1659.55 93.743 1659 93.743C1658.45 93.743 1658 93.2953 1658 92.743L1658 92.4434C1658 91.8911 1658.45 91.4434 1659 91.4434ZM1659 101.732C1659.55 101.732 1660 102.179 1660 102.732L1660 103.031C1660 103.583 1659.55 104.031 1659 104.031C1658.45 104.031 1658 103.583 1658 103.031L1658 102.732C1658 102.179 1658.45 101.732 1659 101.732ZM1659 112.02C1659.55 112.02 1660 112.467 1660 113.02L1660 113.319C1660 113.872 1659.55 114.319 1659 114.319C1658.45 114.319 1658 113.872 1658 113.319L1658 113.02C1658 112.467 1658.45 112.02 1659 112.02ZM1659 122.308C1659.55 122.308 1660 122.755 1660 123.308L1660 123.607C1660 124.16 1659.55 124.607 1659 124.607C1658.45 124.607 1658 124.16 1658 123.607L1658 123.308C1658 122.755 1658.45 122.308 1659 122.308ZM1659 132.596C1659.55 132.596 1660 133.044 1660 133.596L1660 133.896C1660 134.448 1659.55 134.896 1659 134.896C1658.45 134.896 1658 134.448 1658 133.896L1658 133.596C1658 133.044 1658.45 132.596 1659 132.596ZM1659 142.884C1659.55 142.884 1660 143.332 1660 143.884L1660 144.184C1660 144.736 1659.55 145.184 1659 145.184C1658.45 145.184 1658 144.736 1658 144.184L1658 143.884C1658 143.332 1658.45 142.884 1659 142.884ZM1659 153.172C1659.55 153.172 1660 153.62 1660 154.172L1660 154.472C1660 155.024 1659.55 155.472 1659 155.472C1658.45 155.472 1658 155.024 1658 154.472L1658 154.172C1658 153.62 1658.45 153.172 1659 153.172ZM1659 163.46C1659.55 163.46 1660 163.908 1660 164.46L1660 164.76C1660 165.312 1659.55 165.76 1659 165.76C1658.45 165.76 1658 165.312 1658 164.76L1658 164.46C1658 163.908 1658.45 163.46 1659 163.46ZM1659 173.748C1659.55 173.748 1660 174.196 1660 174.748L1660 175.048C1660 175.6 1659.55 176.048 1659 176.048C1658.45 176.048 1658 175.6 1658 175.048L1658 174.748C1658 174.196 1658.45 173.748 1659 173.748ZM1659 184.037C1659.55 184.037 1660 184.484 1660 185.037L1660 185.336C1660 185.889 1659.55 186.336 1659 186.336C1658.45 186.336 1658 185.889 1658 185.336L1658 185.037C1658 184.484 1658.45 184.037 1659 184.037ZM1659 194.325C1659.55 194.325 1660 194.772 1660 195.325L1660 195.624C1660 196.177 1659.55 196.624 1659 196.624C1658.45 196.624 1658 196.177 1658 195.624L1658 195.325C1658 194.772 1658.45 194.325 1659 194.325ZM1659 204.613C1659.55 204.613 1660 205.061 1660 205.613L1660 205.912C1660 206.465 1659.55 206.912 1659 206.912C1658.45 206.912 1658 206.465 1658 205.912L1658 205.613C1658 205.061 1658.45 204.613 1659 204.613ZM1659 214.901C1659.55 214.901 1660 215.349 1660 215.901L1660 216.201C1660 216.753 1659.55 217.201 1659 217.201C1658.45 217.201 1658 216.753 1658 216.201L1658 215.901C1658 215.349 1658.45 214.901 1659 214.901ZM1659 225.189C1659.55 225.189 1660 225.637 1660 226.189L1660 226.489C1660 227.041 1659.55 227.489 1659 227.489C1658.45 227.489 1658 227.041 1658 226.489L1658 226.189C1658 225.637 1658.45 225.189 1659 225.189ZM1659 235.477C1659.55 235.477 1660 235.925 1660 236.477L1660 236.777C1660 237.329 1659.55 237.777 1659 237.777C1658.45 237.777 1658 237.329 1658 236.777L1658 236.477C1658 235.925 1658.45 235.477 1659 235.477ZM1659 245.765C1659.55 245.765 1660 246.213 1660 246.765L1660 247.065C1660 247.617 1659.55 248.065 1659 248.065C1658.45 248.065 1658 247.617 1658 247.065L1658 246.765C1658 246.213 1658.45 245.765 1659 245.765ZM1659 256.053C1659.55 256.053 1660 256.501 1660 257.053L1660 257.353C1660 257.905 1659.55 258.353 1659 258.353C1658.45 258.353 1658 257.905 1658 257.353L1658 257.053C1658 256.501 1658.45 256.053 1659 256.053ZM1659 266.342C1659.55 266.342 1660 266.789 1660 267.342L1660 267.641C1660 268.194 1659.55 268.641 1659 268.641C1658.45 268.641 1658 268.194 1658 267.641L1658 267.342C1658 266.789 1658.45 266.342 1659 266.342ZM1659 276.63C1659.55 276.63 1660 277.077 1660 277.63L1660 277.929C1660 278.482 1659.55 278.929 1659 278.929C1658.45 278.929 1658 278.482 1658 277.929L1658 277.63C1658 277.077 1658.45 276.63 1659 276.63ZM1659 286.918C1659.55 286.918 1660 287.366 1660 287.918L1660 288.218C1660 288.77 1659.55 289.218 1659 289.218C1658.45 289.218 1658 288.77 1658 288.218L1658 287.918C1658 287.366 1658.45 286.918 1659 286.918ZM1659 297.206C1659.55 297.206 1660 297.654 1660 298.206L1660 298.506C1660 299.058 1659.55 299.506 1659 299.506C1658.45 299.506 1658 299.058 1658 298.506L1658 298.206C1658 297.654 1658.45 297.206 1659 297.206ZM1659 307.494C1659.55 307.494 1660 307.942 1660 308.494L1660 308.794C1660 309.346 1659.55 309.794 1659 309.794C1658.45 309.794 1658 309.346 1658 308.794L1658 308.494C1658 307.942 1658.45 307.494 1659 307.494ZM1659 317.782C1659.55 317.782 1660 318.23 1660 318.782L1660 319.082C1660 319.634 1659.55 320.082 1659 320.082C1658.45 320.082 1658 319.634 1658 319.082L1658 318.782C1658 318.23 1658.45 317.782 1659 317.782ZM1659 328.07C1659.55 328.07 1660 328.518 1660 329.07L1660 329.37C1660 329.922 1659.55 330.37 1659 330.37C1658.45 330.37 1658 329.922 1658 329.37L1658 329.07C1658 328.518 1658.45 328.07 1659 328.07ZM1659 338.359C1659.55 338.359 1660 338.806 1660 339.359L1660 339.658C1660 340.211 1659.55 340.658 1659 340.658C1658.45 340.658 1658 340.211 1658 339.658L1658 339.359C1658 338.806 1658.45 338.359 1659 338.359ZM1659 348.647C1659.55 348.647 1660 349.095 1660 349.647L1660 349.946C1660 350.499 1659.55 350.946 1659 350.946C1658.45 350.946 1658 350.499 1658 349.946L1658 349.647C1658 349.095 1658.45 348.647 1659 348.647ZM1659 358.935C1659.55 358.935 1660 359.383 1660 359.935L1660 360.235C1660 360.787 1659.55 361.235 1659 361.235C1658.45 361.235 1658 360.787 1658 360.235L1658 359.935C1658 359.383 1658.45 358.935 1659 358.935ZM1659 369.223C1659.55 369.223 1660 369.671 1660 370.223L1660 370.523C1660 371.075 1659.55 371.523 1659 371.523C1658.45 371.523 1658 371.075 1658 370.523L1658 370.223C1658 369.671 1658.45 369.223 1659 369.223ZM1659 379.511C1659.55 379.511 1660 379.959 1660 380.511L1660 380.811C1660 381.363 1659.55 381.811 1659 381.811C1658.45 381.811 1658 381.363 1658 380.811L1658 380.511C1658 379.959 1658.45 379.511 1659 379.511ZM1659 389.799C1659.55 389.799 1660 390.247 1660 390.799L1660 391.099C1660 391.651 1659.55 392.099 1659 392.099C1658.45 392.099 1658 391.651 1658 391.099L1658 390.799C1658 390.247 1658.45 389.799 1659 389.799ZM1659 400.088C1659.55 400.088 1660 400.535 1660 401.088L1660 401.387C1660 401.939 1659.55 402.387 1659 402.387C1658.45 402.387 1658 401.939 1658 401.387L1658 401.088C1658 400.535 1658.45 400.088 1659 400.088ZM1659 410.376C1659.55 410.376 1660 410.823 1660 411.376L1660 411.675C1660 412.228 1659.55 412.675 1659 412.675C1658.45 412.675 1658 412.228 1658 411.675L1658 411.376C1658 410.823 1658.45 410.376 1659 410.376ZM1659 420.664C1659.55 420.664 1660 421.112 1660 421.664L1660 421.964C1660 422.516 1659.55 422.964 1659 422.964C1658.45 422.964 1658 422.516 1658 421.964L1658 421.664C1658 421.112 1658.45 420.664 1659 420.664ZM1659 430.952C1659.55 430.952 1660 431.4 1660 431.952L1660 432.252C1660 432.804 1659.55 433.252 1659 433.252C1658.45 433.252 1658 432.804 1658 432.252L1658 431.952C1658 431.4 1658.45 430.952 1659 430.952ZM1659 441.24C1659.55 441.24 1660 441.688 1660 442.24L1660 442.54C1660 443.092 1659.55 443.54 1659 443.54C1658.45 443.54 1658 443.092 1658 442.54L1658 442.24C1658 441.688 1658.45 441.24 1659 441.24ZM1659 451.528C1659.55 451.528 1660 451.976 1660 452.528L1660 452.828C1660 453.38 1659.55 453.828 1659 453.828C1658.45 453.828 1658 453.38 1658 452.828L1658 452.528C1658 451.976 1658.45 451.528 1659 451.528ZM1659 461.816C1659.55 461.816 1660 462.264 1660 462.816L1660 463.116C1660 463.668 1659.55 464.116 1659 464.116C1658.45 464.116 1658 463.668 1658 463.116L1658 462.816C1658 462.264 1658.45 461.816 1659 461.816ZM1659 472.105C1659.55 472.105 1660 472.552 1660 473.105L1660 473.404C1660 473.957 1659.55 474.404 1659 474.404C1658.45 474.404 1658 473.957 1658 473.404L1658 473.105C1658 472.552 1658.45 472.105 1659 472.105ZM1659 482.393C1659.55 482.393 1660 482.84 1660 483.393L1660 483.692C1660 484.245 1659.55 484.692 1659 484.692C1658.45 484.692 1658 484.245 1658 483.692L1658 483.393C1658 482.84 1658.45 482.393 1659 482.393ZM1659 492.681C1659.55 492.681 1660 493.129 1660 493.681L1660 493.981C1660 494.533 1659.55 494.981 1659 494.981C1658.45 494.981 1658 494.533 1658 493.981L1658 493.681C1658 493.129 1658.45 492.681 1659 492.681ZM1659 502.969C1659.55 502.969 1660 503.417 1660 503.969L1660 504.269C1660 504.821 1659.55 505.269 1659 505.269C1658.45 505.269 1658 504.821 1658 504.269L1658 503.969C1658 503.417 1658.45 502.969 1659 502.969ZM1659 513.257C1659.55 513.257 1660 513.705 1660 514.257L1660 514.557C1660 515.109 1659.55 515.557 1659 515.557C1658.45 515.557 1658 515.109 1658 514.557L1658 514.257C1658 513.705 1658.45 513.257 1659 513.257ZM1659 523.545C1659.55 523.545 1660 523.993 1660 524.545L1660 524.845C1660 525.397 1659.55 525.845 1659 525.845C1658.45 525.845 1658 525.397 1658 524.845L1658 524.545C1658 523.993 1658.45 523.545 1659 523.545ZM1659 533.833C1659.55 533.833 1660 534.281 1660 534.833L1660 535.133C1660 535.685 1659.55 536.133 1659 536.133C1658.45 536.133 1658 535.685 1658 535.133L1658 534.833C1658 534.281 1658.45 533.833 1659 533.833ZM1659 544.122C1659.55 544.122 1660 544.569 1660 545.122L1660 545.421C1660 545.974 1659.55 546.421 1659 546.421C1658.45 546.421 1658 545.974 1658 545.421L1658 545.122C1658 544.569 1658.45 544.122 1659 544.122ZM1659 554.41C1659.55 554.41 1660 554.857 1660 555.41L1660 555.709C1660 556.262 1659.55 556.709 1659 556.709C1658.45 556.709 1658 556.262 1658 555.709L1658 555.41C1658 554.857 1658.45 554.41 1659 554.41ZM1659 564.698C1659.55 564.698 1660 565.146 1660 565.698L1660 565.998C1660 566.55 1659.55 566.998 1659 566.998C1658.45 566.998 1658 566.55 1658 565.998L1658 565.698C1658 565.146 1658.45 564.698 1659 564.698ZM1659 574.986C1659.55 574.986 1660 575.434 1660 575.986L1660 576.286C1660 576.838 1659.55 577.286 1659 577.286C1658.45 577.286 1658 576.838 1658 576.286L1658 575.986C1658 575.434 1658.45 574.986 1659 574.986ZM1659 585.274C1659.55 585.274 1660 585.722 1660 586.274L1660 586.574C1660 587.126 1659.55 587.574 1659 587.574C1658.45 587.574 1658 587.126 1658 586.574L1658 586.274C1658 585.722 1658.45 585.274 1659 585.274ZM1659 595.562C1659.55 595.562 1660 596.01 1660 596.562L1660 596.862C1660 597.414 1659.55 597.862 1659 597.862C1658.45 597.862 1658 597.414 1658 596.862L1658 596.562C1658 596.01 1658.45 595.562 1659 595.562ZM1659 605.85C1659.55 605.85 1660 606.298 1660 606.85L1660 607L1658 607L1658 606.85C1658 606.298 1658.45 605.85 1659 605.85Z" fill="white"/>
<circle cx="1659.68" cy="651.395" r="32.4611" stroke="white" stroke-width="1.86826"/>
<path d="M1655.71 619.144V611.204C1655.71 608.882 1657.6 607 1659.92 607V607C1662.24 607 1664.12 608.882 1664.12 611.204V619.144" stroke="white" stroke-width="1.86826"/>
<path d="M1665.48 632.984L1664.25 646.195L1677.12 642.935L1666.9 651.407L1678.3 658.196L1665.09 656.966L1668.35 669.828L1659.88 659.616L1653.09 671.016L1654.32 657.805L1641.46 661.065L1651.67 652.593L1640.27 645.804L1653.48 647.034L1650.22 634.172L1658.7 644.384L1665.48 632.984Z" fill="white"/>
<path d="M1659.79 619.5V684" stroke="white" stroke-width="2"/>
<path d="M1636.98 628.946L1682.59 674.554" stroke="white" stroke-width="2"/>
<path d="M1627.54 651.75H1692.04" stroke="white" stroke-width="2"/>
<path d="M1636.98 674.554L1682.59 628.946" stroke="white" stroke-width="2"/>
<path d="M1675.79 623.5V635.5H1688.29" stroke="white" stroke-width="2"/>
<path d="M1691.25 644.002L1682.31 652.009L1690.65 661.319" stroke="white" stroke-width="2"/>
<path d="M1628.56 660.113L1637.31 651.893L1628.74 642.786" stroke="white" stroke-width="2"/>
<path d="M1643.77 679.035L1643.81 667.035L1631.31 667" stroke="white" stroke-width="2"/>
<path d="M1631.29 635.5L1643.29 635.5L1643.29 623" stroke="white" stroke-width="2"/>
<path d="M1688.31 667.035L1676.31 667.001L1676.27 679.501" stroke="white" stroke-width="2"/>
<path d="M1668.2 682.869L1659.76 674.339L1650.88 683.131" stroke="white" stroke-width="2"/>
<path d="M1651.88 619.386L1659.91 628.303L1667.29 620" stroke="white" stroke-width="2"/>
</g>
<g filter="url(#filter7_f_122_290)">
<path d="M481.964 441.843C481.982 441.757 482.017 441.718 482.046 441.696C482.081 441.669 482.136 441.648 482.201 441.648C482.267 441.648 482.322 441.668 482.358 441.695C482.387 441.716 482.422 441.755 482.441 441.84L487.453 465.019C488.029 467.681 489.994 469.826 492.595 470.632L510.253 476.106C510.934 476.317 510.939 477.28 510.26 477.498L492.66 483.156C490.068 483.99 488.126 486.155 487.578 488.823L482.809 512.054C482.791 512.139 482.756 512.178 482.727 512.2C482.691 512.227 482.637 512.248 482.571 512.248C482.506 512.248 482.451 512.228 482.415 512.202C482.386 512.18 482.351 512.142 482.332 512.056L477.32 488.877C476.744 486.215 474.779 484.07 472.178 483.264L454.52 477.791C453.838 477.579 453.833 476.616 454.513 476.398L472.112 470.74C474.705 469.906 476.647 467.741 477.195 465.073L481.964 441.843Z" fill="white" stroke="white" stroke-width="1.46059"/>
<path d="M488.295 468.911L488.385 469.328L488.792 469.454L512.462 476.79L488.87 484.375L488.464 484.505L488.379 484.923L482.576 513.185L476.478 484.986L476.388 484.569L475.981 484.442L452.311 477.106L475.902 469.521L476.308 469.391L476.394 468.973L482.196 440.711L488.295 468.911Z" fill="white" stroke="white" stroke-width="1.46059"/>
<path d="M464.473 457.811L482.946 469.256L501.419 457.811L489.973 476.284L501.419 494.757L482.946 483.311L464.473 494.757L475.918 476.284L464.473 457.811Z" fill="white"/>
<circle cx="481.862" cy="430" r="6" stroke="white" stroke-width="2"/>
<path fill-rule="evenodd" clip-rule="evenodd" d="M481 0.150604L481 0L483 -8.74228e-08L483 0.150604C483 0.702889 482.552 1.1506 482 1.1506C481.448 1.1506 481 0.702889 481 0.150604ZM482 9.19086C482.552 9.19086 483 9.63857 483 10.1909L483 10.4921C483 11.0444 482.552 11.4921 482 11.4921C481.448 11.4921 481 11.0444 481 10.4921L481 10.1909C481 9.63857 481.448 9.19086 482 9.19086ZM482 19.5323C482.552 19.5323 483 19.98 483 20.5323L483 20.8335C483 21.3858 482.552 21.8335 482 21.8335C481.448 21.8335 481 21.3858 481 20.8335L481 20.5323C481 19.98 481.448 19.5323 482 19.5323ZM482 29.8738C482.552 29.8738 483 30.3215 483 30.8738L483 31.175C483 31.7273 482.552 32.175 482 32.175C481.448 32.175 481 31.7273 481 31.175L481 30.8738C481 30.3215 481.448 29.8738 482 29.8738ZM482 40.2152C482.552 40.2152 483 40.663 483 41.2152L483 41.5165C483 42.0687 482.552 42.5165 482 42.5165C481.448 42.5165 481 42.0687 481 41.5165L481 41.2152C481 40.663 481.448 40.2152 482 40.2152ZM482 50.5567C482.552 50.5567 483 51.0044 483 51.5567L483 51.8579C483 52.4102 482.552 52.8579 482 52.8579C481.448 52.8579 481 52.4102 481 51.8579L481 51.5567C481 51.0044 481.448 50.5567 482 50.5567ZM482 60.8982C482.552 60.8982 483 61.3459 483 61.8982L483 62.1994C483 62.7517 482.552 63.1994 482 63.1994C481.448 63.1994 481 62.7517 481 62.1994L481 61.8982C481 61.3459 481.448 60.8982 482 60.8982ZM482 71.2396C482.552 71.2396 483 71.6874 483 72.2396L483 72.5408C483 73.0931 482.552 73.5408 482 73.5408C481.448 73.5408 481 73.0931 481 72.5408L481 72.2396C481 71.6874 481.448 71.2396 482 71.2396ZM482 81.5811C482.552 81.5811 483 82.0288 483 82.5811L483 82.8823C483 83.4346 482.552 83.8823 482 83.8823C481.448 83.8823 481 83.4346 481 82.8823L481 82.5811C481 82.0288 481.448 81.5811 482 81.5811ZM482 91.9226C482.552 91.9226 483 92.3703 483 92.9226L483 93.2238C483 93.776 482.552 94.2238 482 94.2238C481.448 94.2238 481 93.776 481 93.2238L481 92.9226C481 92.3703 481.448 91.9226 482 91.9226ZM482 102.264C482.552 102.264 483 102.712 483 103.264L483 103.565C483 104.118 482.552 104.565 482 104.565C481.448 104.565 481 104.118 481 103.565L481 103.264C481 102.712 481.448 102.264 482 102.264ZM482 112.605C482.552 112.605 483 113.053 483 113.605L483 113.907C483 114.459 482.552 114.907 482 114.907C481.448 114.907 481 114.459 481 113.907L481 113.605C481 113.053 481.448 112.605 482 112.605ZM482 122.947C482.552 122.947 483 123.395 483 123.947L483 124.248C483 124.8 482.552 125.248 482 125.248C481.448 125.248 481 124.8 481 124.248L481 123.947C481 123.395 481.448 122.947 482 122.947ZM482 133.288C482.552 133.288 483 133.736 483 134.288L483 134.59C483 135.142 482.552 135.59 482 135.59C481.448 135.59 481 135.142 481 134.59L481 134.288C481 133.736 481.448 133.288 482 133.288ZM482 143.63C482.552 143.63 483 144.078 483 144.63L483 144.931C483 145.483 482.552 145.931 482 145.931C481.448 145.931 481 145.483 481 144.931L481 144.63C481 144.078 481.448 143.63 482 143.63ZM482 153.971C482.552 153.971 483 154.419 483 154.971L483 155.273C483 155.825 482.552 156.273 482 156.273C481.448 156.273 481 155.825 481 155.273L481 154.971C481 154.419 481.448 153.971 482 153.971ZM482 164.313C482.552 164.313 483 164.76 483 165.313L483 165.614C483 166.166 482.552 166.614 482 166.614C481.448 166.614 481 166.166 481 165.614L481 165.313C481 164.76 481.448 164.313 482 164.313ZM482 174.654C482.552 174.654 483 175.102 483 175.654L483 175.955C483 176.508 482.552 176.955 482 176.955C481.448 176.955 481 176.508 481 175.955L481 175.654C481 175.102 481.448 174.654 482 174.654ZM482 184.996C482.552 184.996 483 185.443 483 185.996L483 186.297C483 186.849 482.552 187.297 482 187.297C481.448 187.297 481 186.849 481 186.297L481 185.996C481 185.443 481.448 184.996 482 184.996ZM482 195.337C482.552 195.337 483 195.785 483 196.337L483 196.638C483 197.191 482.552 197.638 482 197.638C481.448 197.638 481 197.191 481 196.638L481 196.337C481 195.785 481.448 195.337 482 195.337ZM482 205.679C482.552 205.679 483 206.126 483 206.679L483 206.98C483 207.532 482.552 207.98 482 207.98C481.448 207.98 481 207.532 481 206.98L481 206.679C481 206.126 481.448 205.679 482 205.679ZM482 216.02C482.552 216.02 483 216.468 483 217.02L483 217.321C483 217.874 482.552 218.321 482 218.321C481.448 218.321 481 217.874 481 217.321L481 217.02C481 216.468 481.448 216.02 482 216.02ZM482 226.362C482.552 226.362 483 226.809 483 227.362L483 227.663C483 228.215 482.552 228.663 482 228.663C481.448 228.663 481 228.215 481 227.663L481 227.362C481 226.809 481.448 226.362 482 226.362ZM482 236.703C482.552 236.703 483 237.151 483 237.703L483 238.004C483 238.557 482.552 239.004 482 239.004C481.448 239.004 481 238.557 481 238.004L481 237.703C481 237.151 481.448 236.703 482 236.703ZM482 247.044C482.552 247.044 483 247.492 483 248.044L483 248.346C483 248.898 482.552 249.346 482 249.346C481.448 249.346 481 248.898 481 248.346L481 248.044C481 247.492 481.448 247.044 482 247.044ZM482 257.386C482.552 257.386 483 257.834 483 258.386L483 258.687C483 259.239 482.552 259.687 482 259.687C481.448 259.687 481 259.239 481 258.687L481 258.386C481 257.834 481.448 257.386 482 257.386ZM482 267.727C482.552 267.727 483 268.175 483 268.727L483 269.029C483 269.581 482.552 270.029 482 270.029C481.448 270.029 481 269.581 481 269.029L481 268.727C481 268.175 481.448 267.727 482 267.727ZM482 278.069C482.552 278.069 483 278.517 483 279.069L483 279.37C483 279.922 482.552 280.37 482 280.37C481.448 280.37 481 279.922 481 279.37L481 279.069C481 278.517 481.448 278.069 482 278.069ZM482 288.41C482.552 288.41 483 288.858 483 289.41L483 289.712C483 290.264 482.552 290.712 482 290.712C481.448 290.712 481 290.264 481 289.712L481 289.41C481 288.858 481.448 288.41 482 288.41ZM482 298.752C482.552 298.752 483 299.2 483 299.752L483 300.053C483 300.605 482.552 301.053 482 301.053C481.448 301.053 481 300.605 481 300.053L481 299.752C481 299.2 481.448 298.752 482 298.752ZM482 309.093C482.552 309.093 483 309.541 483 310.093L483 310.394C483 310.947 482.552 311.394 482 311.394C481.448 311.394 481 310.947 481 310.394L481 310.093C481 309.541 481.448 309.093 482 309.093ZM482 319.435C482.552 319.435 483 319.882 483 320.435L483 320.736C483 321.288 482.552 321.736 482 321.736C481.448 321.736 481 321.288 481 320.736L481 320.435C481 319.882 481.448 319.435 482 319.435ZM482 329.776C482.552 329.776 483 330.224 483 330.776L483 331.077C483 331.63 482.552 332.077 482 332.077C481.448 332.077 481 331.63 481 331.077L481 330.776C481 330.224 481.448 329.776 482 329.776ZM482 340.118C482.552 340.118 483 340.565 483 341.118L483 341.419C483 341.971 482.552 342.419 482 342.419C481.448 342.419 481 341.971 481 341.419L481 341.118C481 340.565 481.448 340.118 482 340.118ZM482 350.459C482.552 350.459 483 350.907 483 351.459L483 351.76C483 352.313 482.552 352.76 482 352.76C481.448 352.76 481 352.313 481 351.76L481 351.459C481 350.907 481.448 350.459 482 350.459ZM482 360.801C482.552 360.801 483 361.248 483 361.801L483 362.102C483 362.654 482.552 363.102 482 363.102C481.448 363.102 481 362.654 481 362.102L481 361.801C481 361.248 481.448 360.801 482 360.801ZM482 371.142C482.552 371.142 483 371.59 483 372.142L483 372.443C483 372.996 482.552 373.443 482 373.443C481.448 373.443 481 372.996 481 372.443L481 372.142C481 371.59 481.448 371.142 482 371.142ZM482 381.483C482.552 381.483 483 381.931 483 382.483L483 382.785C483 383.337 482.552 383.785 482 383.785C481.448 383.785 481 383.337 481 382.785L481 382.483C481 381.931 481.448 381.483 482 381.483ZM482 391.825C482.552 391.825 483 392.273 483 392.825L483 393.126C483 393.678 482.552 394.126 482 394.126C481.448 394.126 481 393.678 481 393.126L481 392.825C481 392.273 481.448 391.825 482 391.825ZM482 402.166C482.552 402.166 483 402.614 483 403.166L483 403.468C483 404.02 482.552 404.468 482 404.468C481.448 404.468 481 404.02 481 403.468L481 403.166C481 402.614 481.448 402.166 482 402.166ZM482 412.508C482.552 412.508 483 412.956 483 413.508L483 413.809C483 414.361 482.552 414.809 482 414.809C481.448 414.809 481 414.361 481 413.809L481 413.508C481 412.956 481.448 412.508 482 412.508ZM482 422.849C482.552 422.849 483 423.297 483 423.849L483 424L481 424L481 423.849C481 423.297 481.448 422.849 482 422.849Z" fill="white"/>
</g>
<g filter="url(#filter8_f_122_290)">
<path d="M1801.72 345.459C1801.74 345.374 1801.77 345.336 1801.8 345.314C1801.83 345.287 1801.89 345.266 1801.95 345.266C1802.02 345.266 1802.07 345.286 1802.11 345.312C1802.14 345.334 1802.17 345.372 1802.19 345.457L1807.17 368.478C1807.74 371.121 1809.69 373.252 1812.28 374.052L1829.81 379.488C1830.49 379.698 1830.5 380.654 1829.82 380.871L1812.34 386.491C1809.77 387.318 1807.84 389.469 1807.29 392.119L1802.56 415.19C1802.54 415.275 1802.5 415.314 1802.48 415.336C1802.44 415.363 1802.39 415.383 1802.32 415.384C1802.26 415.384 1802.2 415.364 1802.17 415.337C1802.14 415.316 1802.1 415.278 1802.08 415.193L1797.11 392.172C1796.53 389.528 1794.58 387.398 1792 386.597L1774.46 381.161C1773.78 380.952 1773.78 379.995 1774.45 379.778L1791.93 374.159C1794.51 373.331 1796.44 371.18 1796.98 368.531L1801.72 345.459Z" fill="white" stroke="white" stroke-width="1.45061"/>
<path d="M1808.01 372.342L1808.1 372.756L1808.5 372.882L1832.01 380.168L1808.58 387.701L1808.17 387.83L1808.09 388.245L1802.33 416.314L1796.27 388.307L1796.18 387.893L1795.78 387.768L1772.27 380.481L1795.7 372.949L1796.1 372.819L1796.19 372.404L1801.95 344.336L1808.01 372.342Z" fill="white" stroke="white" stroke-width="1.45061"/>
<path d="M1784.35 361.318L1802.69 372.686L1821.04 361.318L1809.67 379.665L1821.04 398.012L1802.69 386.645L1784.35 398.012L1795.71 379.665L1784.35 361.318Z" fill="white"/>
<circle cx="1801.62" cy="333.698" r="5.95901" stroke="white" stroke-width="1.98634"/>
<path fill-rule="evenodd" clip-rule="evenodd" d="M1800.01 0.149272L1800.01 0L1801.99 -8.68255e-08L1801.99 0.149272C1801.99 0.697783 1801.55 1.14244 1801 1.14244C1800.45 1.14244 1800.01 0.697783 1800.01 0.149272ZM1801 9.10756C1801.55 9.10756 1801.99 9.55222 1801.99 10.1007L1801.99 10.3993C1801.99 10.9478 1801.55 11.3924 1801 11.3924C1800.45 11.3924 1800.01 10.9478 1800.01 10.3993L1800.01 10.1007C1800.01 9.55222 1800.45 9.10756 1801 9.10756ZM1801 19.3576C1801.55 19.3576 1801.99 19.8022 1801.99 20.3507L1801.99 20.6493C1801.99 21.1978 1801.55 21.6424 1801 21.6424C1800.45 21.6424 1800.01 21.1978 1800.01 20.6493L1800.01 20.3507C1800.01 19.8022 1800.45 19.3576 1801 19.3576ZM1801 29.6076C1801.55 29.6076 1801.99 30.0522 1801.99 30.6007L1801.99 30.8993C1801.99 31.4478 1801.55 31.8924 1801 31.8924C1800.45 31.8924 1800.01 31.4478 1800.01 30.8993L1800.01 30.6007C1800.01 30.0522 1800.45 29.6076 1801 29.6076ZM1801 39.8576C1801.55 39.8576 1801.99 40.3022 1801.99 40.8507L1801.99 41.1493C1801.99 41.6978 1801.55 42.1424 1801 42.1424C1800.45 42.1424 1800.01 41.6978 1800.01 41.1493L1800.01 40.8507C1800.01 40.3022 1800.45 39.8576 1801 39.8576ZM1801 50.1076C1801.55 50.1076 1801.99 50.5522 1801.99 51.1007L1801.99 51.3993C1801.99 51.9478 1801.55 52.3924 1801 52.3924C1800.45 52.3924 1800.01 51.9478 1800.01 51.3993L1800.01 51.1007C1800.01 50.5522 1800.45 50.1076 1801 50.1076ZM1801 60.3576C1801.55 60.3576 1801.99 60.8022 1801.99 61.3507L1801.99 61.6493C1801.99 62.1978 1801.55 62.6424 1801 62.6424C1800.45 62.6424 1800.01 62.1978 1800.01 61.6493L1800.01 61.3507C1800.01 60.8022 1800.45 60.3576 1801 60.3576ZM1801 70.6076C1801.55 70.6076 1801.99 71.0522 1801.99 71.6007L1801.99 71.8993C1801.99 72.4478 1801.55 72.8924 1801 72.8924C1800.45 72.8924 1800.01 72.4478 1800.01 71.8993L1800.01 71.6007C1800.01 71.0522 1800.45 70.6076 1801 70.6076ZM1801 80.8576C1801.55 80.8576 1801.99 81.3022 1801.99 81.8507L1801.99 82.1493C1801.99 82.6978 1801.55 83.1424 1801 83.1424C1800.45 83.1424 1800.01 82.6978 1800.01 82.1493L1800.01 81.8507C1800.01 81.3022 1800.45 80.8576 1801 80.8576ZM1801 91.1076C1801.55 91.1076 1801.99 91.5522 1801.99 92.1007L1801.99 92.3993C1801.99 92.9478 1801.55 93.3924 1801 93.3924C1800.45 93.3924 1800.01 92.9478 1800.01 92.3993L1800.01 92.1007C1800.01 91.5522 1800.45 91.1076 1801 91.1076ZM1801 101.358C1801.55 101.358 1801.99 101.802 1801.99 102.351L1801.99 102.649C1801.99 103.198 1801.55 103.642 1801 103.642C1800.45 103.642 1800.01 103.198 1800.01 102.649L1800.01 102.351C1800.01 101.802 1800.45 101.358 1801 101.358ZM1801 111.608C1801.55 111.608 1801.99 112.052 1801.99 112.601L1801.99 112.899C1801.99 113.448 1801.55 113.892 1801 113.892C1800.45 113.892 1800.01 113.448 1800.01 112.899L1800.01 112.601C1800.01 112.052 1800.45 111.608 1801 111.608ZM1801 121.858C1801.55 121.858 1801.99 122.302 1801.99 122.851L1801.99 123.149C1801.99 123.698 1801.55 124.142 1801 124.142C1800.45 124.142 1800.01 123.698 1800.01 123.149L1800.01 122.851C1800.01 122.302 1800.45 121.858 1801 121.858ZM1801 132.108C1801.55 132.108 1801.99 132.552 1801.99 133.101L1801.99 133.399C1801.99 133.948 1801.55 134.392 1801 134.392C1800.45 134.392 1800.01 133.948 1800.01 133.399L1800.01 133.101C1800.01 132.552 1800.45 132.108 1801 132.108ZM1801 142.358C1801.55 142.358 1801.99 142.802 1801.99 143.351L1801.99 143.649C1801.99 144.198 1801.55 144.642 1801 144.642C1800.45 144.642 1800.01 144.198 1800.01 143.649L1800.01 143.351C1800.01 142.802 1800.45 142.358 1801 142.358ZM1801 152.608C1801.55 152.608 1801.99 153.052 1801.99 153.601L1801.99 153.899C1801.99 154.448 1801.55 154.892 1801 154.892C1800.45 154.892 1800.01 154.448 1800.01 153.899L1800.01 153.601C1800.01 153.052 1800.45 152.608 1801 152.608ZM1801 162.858C1801.55 162.858 1801.99 163.302 1801.99 163.851L1801.99 164.149C1801.99 164.698 1801.55 165.142 1801 165.142C1800.45 165.142 1800.01 164.698 1800.01 164.149L1800.01 163.851C1800.01 163.302 1800.45 162.858 1801 162.858ZM1801 173.108C1801.55 173.108 1801.99 173.552 1801.99 174.101L1801.99 174.399C1801.99 174.948 1801.55 175.392 1801 175.392C1800.45 175.392 1800.01 174.948 1800.01 174.399L1800.01 174.101C1800.01 173.552 1800.45 173.108 1801 173.108ZM1801 183.358C1801.55 183.358 1801.99 183.802 1801.99 184.351L1801.99 184.649C1801.99 185.198 1801.55 185.642 1801 185.642C1800.45 185.642 1800.01 185.198 1800.01 184.649L1800.01 184.351C1800.01 183.802 1800.45 183.358 1801 183.358ZM1801 193.608C1801.55 193.608 1801.99 194.052 1801.99 194.601L1801.99 194.899C1801.99 195.448 1801.55 195.892 1801 195.892C1800.45 195.892 1800.01 195.448 1800.01 194.899L1800.01 194.601C1800.01 194.052 1800.45 193.608 1801 193.608ZM1801 203.858C1801.55 203.858 1801.99 204.302 1801.99 204.851L1801.99 205.149C1801.99 205.698 1801.55 206.142 1801 206.142C1800.45 206.142 1800.01 205.698 1800.01 205.149L1800.01 204.851C1800.01 204.302 1800.45 203.858 1801 203.858ZM1801 214.108C1801.55 214.108 1801.99 214.552 1801.99 215.101L1801.99 215.399C1801.99 215.948 1801.55 216.392 1801 216.392C1800.45 216.392 1800.01 215.948 1800.01 215.399L1800.01 215.101C1800.01 214.552 1800.45 214.108 1801 214.108ZM1801 224.358C1801.55 224.358 1801.99 224.802 1801.99 225.351L1801.99 225.649C1801.99 226.198 1801.55 226.642 1801 226.642C1800.45 226.642 1800.01 226.198 1800.01 225.649L1800.01 225.351C1800.01 224.802 1800.45 224.358 1801 224.358ZM1801 234.608C1801.55 234.608 1801.99 235.052 1801.99 235.601L1801.99 235.899C1801.99 236.448 1801.55 236.892 1801 236.892C1800.45 236.892 1800.01 236.448 1800.01 235.899L1800.01 235.601C1800.01 235.052 1800.45 234.608 1801 234.608ZM1801 244.858C1801.55 244.858 1801.99 245.302 1801.99 245.851L1801.99 246.149C1801.99 246.698 1801.55 247.142 1801 247.142C1800.45 247.142 1800.01 246.698 1800.01 246.149L1800.01 245.851C1800.01 245.302 1800.45 244.858 1801 244.858ZM1801 255.108C1801.55 255.108 1801.99 255.552 1801.99 256.101L1801.99 256.399C1801.99 256.948 1801.55 257.392 1801 257.392C1800.45 257.392 1800.01 256.948 1800.01 256.399L1800.01 256.101C1800.01 255.552 1800.45 255.108 1801 255.108ZM1801 265.358C1801.55 265.358 1801.99 265.802 1801.99 266.351L1801.99 266.649C1801.99 267.198 1801.55 267.642 1801 267.642C1800.45 267.642 1800.01 267.198 1800.01 266.649L1800.01 266.351C1800.01 265.802 1800.45 265.358 1801 265.358ZM1801 275.608C1801.55 275.608 1801.99 276.052 1801.99 276.601L1801.99 276.899C1801.99 277.448 1801.55 277.892 1801 277.892C1800.45 277.892 1800.01 277.448 1800.01 276.899L1800.01 276.601C1800.01 276.052 1800.45 275.608 1801 275.608ZM1801 285.858C1801.55 285.858 1801.99 286.302 1801.99 286.851L1801.99 287.149C1801.99 287.698 1801.55 288.142 1801 288.142C1800.45 288.142 1800.01 287.698 1800.01 287.149L1800.01 286.851C1800.01 286.302 1800.45 285.858 1801 285.858ZM1801 296.108C1801.55 296.108 1801.99 296.552 1801.99 297.101L1801.99 297.399C1801.99 297.948 1801.55 298.392 1801 298.392C1800.45 298.392 1800.01 297.948 1800.01 297.399L1800.01 297.101C1800.01 296.552 1800.45 296.108 1801 296.108ZM1801 306.358C1801.55 306.358 1801.99 306.802 1801.99 307.351L1801.99 307.649C1801.99 308.198 1801.55 308.642 1801 308.642C1800.45 308.642 1800.01 308.198 1800.01 307.649L1800.01 307.351C1800.01 306.802 1800.45 306.358 1801 306.358ZM1801 316.608C1801.55 316.608 1801.99 317.052 1801.99 317.601L1801.99 317.899C1801.99 318.448 1801.55 318.892 1801 318.892C1800.45 318.892 1800.01 318.448 1800.01 317.899L1800.01 317.601C1800.01 317.052 1800.45 316.608 1801 316.608ZM1801 326.858C1801.55 326.858 1801.99 327.302 1801.99 327.851L1801.99 328L1800.01 328L1800.01 327.851C1800.01 327.302 1800.45 326.858 1801 326.858Z" fill="white"/>
</g>
<path fill-rule="evenodd" clip-rule="evenodd" d="M311.5 0.154733L311.5 0L314.5 -1.31134e-07L314.5 0.154733C314.5 0.98316 313.828 1.65473 313 1.65473C312.172 1.65473 311.5 0.98316 311.5 0.154733ZM313 8.97027C313.828 8.97027 314.5 9.64184 314.5 10.4703L314.5 10.7797C314.5 11.6082 313.828 12.2797 313 12.2797C312.172 12.2797 311.5 11.6082 311.5 10.7797L311.5 10.4703C311.5 9.64184 312.172 8.97027 313 8.97027ZM313 19.5953C313.828 19.5953 314.5 20.2668 314.5 21.0953L314.5 21.4047C314.5 22.2332 313.828 22.9047 313 22.9047C312.172 22.9047 311.5 22.2332 311.5 21.4047L311.5 21.0953C311.5 20.2668 312.172 19.5953 313 19.5953ZM313 30.2203C313.828 30.2203 314.5 30.8918 314.5 31.7203L314.5 32.0297C314.5 32.8582 313.828 33.5297 313 33.5297C312.172 33.5297 311.5 32.8582 311.5 32.0297L311.5 31.7203C311.5 30.8918 312.172 30.2203 313 30.2203ZM313 40.8453C313.828 40.8453 314.5 41.5168 314.5 42.3453L314.5 42.6547C314.5 43.4832 313.828 44.1547 313 44.1547C312.172 44.1547 311.5 43.4832 311.5 42.6547L311.5 42.3453C311.5 41.5168 312.172 40.8453 313 40.8453ZM313 51.4703C313.828 51.4703 314.5 52.1418 314.5 52.9703L314.5 53.2797C314.5 54.1082 313.828 54.7797 313 54.7797C312.172 54.7797 311.5 54.1082 311.5 53.2797L311.5 52.9703C311.5 52.1418 312.172 51.4703 313 51.4703ZM313 62.0953C313.828 62.0953 314.5 62.7668 314.5 63.5953L314.5 63.9047C314.5 64.7332 313.828 65.4047 313 65.4047C312.172 65.4047 311.5 64.7332 311.5 63.9047L311.5 63.5953C311.5 62.7668 312.172 62.0953 313 62.0953ZM313 72.7203C313.828 72.7203 314.5 73.3918 314.5 74.2203L314.5 74.5297C314.5 75.3582 313.828 76.0297 313 76.0297C312.172 76.0297 311.5 75.3582 311.5 74.5297L311.5 74.2203C311.5 73.3918 312.172 72.7203 313 72.7203ZM313 83.3453C313.828 83.3453 314.5 84.0168 314.5 84.8453L314.5 85L311.5 85L311.5 84.8453C311.5 84.0168 312.172 83.3453 313 83.3453Z" fill="white"/>
<circle cx="312.651" cy="189.651" r="75.788" stroke="white" stroke-width="4.3619"/>
<path d="M303.382 114.352V95.8143C303.382 90.394 307.776 86 313.196 86V86C318.616 86 323.01 90.394 323.01 95.8143V114.352" stroke="white" stroke-width="4.3619"/>
<path d="M326.194 146.666L323.323 177.51L353.351 169.899L329.51 189.679L356.125 205.53L325.281 202.658L332.892 232.686L313.112 208.845L297.261 235.46L300.133 204.616L270.105 212.227L293.946 192.448L267.331 176.596L298.175 179.468L290.564 149.44L310.343 173.281L326.194 146.666Z" fill="white"/>
<path d="M312.896 115.184V265.775" stroke="white" stroke-width="4.66947"/>
<path d="M259.654 137.238L366.138 243.721" stroke="white" stroke-width="4.66947"/>
<path d="M237.601 190.479H388.191" stroke="white" stroke-width="4.66947"/>
<path d="M259.654 243.721L366.138 137.238" stroke="white" stroke-width="4.66947"/>
<path d="M350.252 124.523V152.54H379.436" stroke="white" stroke-width="4.66947"/>
<path d="M386.35 172.389L365.483 191.085L384.957 212.821" stroke="white" stroke-width="4.66947"/>
<path d="M239.991 210.004L260.403 190.813L240.412 169.551" stroke="white" stroke-width="4.66947"/>
<path d="M275.503 254.182L275.581 226.165L246.397 226.084" stroke="white" stroke-width="4.66947"/>
<path d="M246.356 152.54L274.373 152.54L274.373 123.356" stroke="white" stroke-width="4.66947"/>
<path d="M379.476 226.165L351.459 226.087L351.378 255.271" stroke="white" stroke-width="4.66947"/>
<path d="M332.538 263.133L312.831 243.219L292.087 263.747" stroke="white" stroke-width="4.66947"/>
<path d="M294.429 114.918L313.178 135.737L330.406 116.352" stroke="white" stroke-width="4.66947"/>
<defs>
<filter id="filter0_f_122_290" x="-310.5" y="-174.5" width="1055" height="1118" filterUnits="userSpaceOnUse" color-interpolation-filters="sRGB">
<feFlood flood-opacity="0" result="BackgroundImageFix"/>
<feBlend mode="normal" in="SourceGraphic" in2="BackgroundImageFix" result="shape"/>
<feGaussianBlur stdDeviation="87.25" result="effect1_foregroundBlur_122_290"/>
</filter>
<filter id="filter1_f_122_290" x="1432.5" y="295.5" width="768" height="805" filterUnits="userSpaceOnUse" color-interpolation-filters="sRGB">
<feFlood flood-opacity="0" result="BackgroundImageFix"/>
<feBlend mode="normal" in="SourceGraphic" in2="BackgroundImageFix" result="shape"/>
<feGaussianBlur stdDeviation="87.25" result="effect1_foregroundBlur_122_290"/>
</filter>
<filter id="filter2_f_122_290" x="-58.4" y="-327.4" width="1197.59" height="1206.13" filterUnits="userSpaceOnUse" color-interpolation-filters="sRGB">
<feFlood flood-opacity="0" result="BackgroundImageFix"/>
<feBlend mode="normal" in="SourceGraphic" in2="BackgroundImageFix" result="shape"/>
<feGaussianBlur stdDeviation="187.7" result="effect1_foregroundBlur_122_290"/>
</filter>
<filter id="filter3_f_122_290" x="1177.1" y="225.1" width="1073.8" height="1075.8" filterUnits="userSpaceOnUse" color-interpolation-filters="sRGB">
<feFlood flood-opacity="0" result="BackgroundImageFix"/>
<feBlend mode="normal" in="SourceGraphic" in2="BackgroundImageFix" result="shape"/>
<feGaussianBlur stdDeviation="149.95" result="effect1_foregroundBlur_122_290"/>
</filter>
<filter id="filter4_f_122_290" x="1617.76" y="643.413" width="456.735" height="369.664" filterUnits="userSpaceOnUse" color-interpolation-filters="sRGB">
<feFlood flood-opacity="0" result="BackgroundImageFix"/>
<feBlend mode="normal" in="SourceGraphic" in2="BackgroundImageFix" result="shape"/>
<feGaussianBlur stdDeviation="62.6" result="effect1_foregroundBlur_122_290"/>
</filter>
<filter id="filter5_f_122_290" x="142.5" y="-2.5" width="80.5495" height="394.739" filterUnits="userSpaceOnUse" color-interpolation-filters="sRGB">
<feFlood flood-opacity="0" result="BackgroundImageFix"/>
<feBlend mode="normal" in="SourceGraphic" in2="BackgroundImageFix" result="shape"/>
<feGaussianBlur stdDeviation="1.25" result="effect1_foregroundBlur_122_290"/>
</filter>
<filter id="filter6_f_122_290" x="1622.19" y="-4.1" width="74.9904" height="692.99" filterUnits="userSpaceOnUse" color-interpolation-filters="sRGB">
<feFlood flood-opacity="0" result="BackgroundImageFix"/>
<feBlend mode="normal" in="SourceGraphic" in2="BackgroundImageFix" result="shape"/>
<feGaussianBlur stdDeviation="2.05" result="effect1_foregroundBlur_122_290"/>
</filter>
<filter id="filter7_f_122_290" x="445.785" y="-4.1" width="73.2028" height="524.926" filterUnits="userSpaceOnUse" color-interpolation-filters="sRGB">
<feFlood flood-opacity="0" result="BackgroundImageFix"/>
<feBlend mode="normal" in="SourceGraphic" in2="BackgroundImageFix" result="shape"/>
<feGaussianBlur stdDeviation="2.05" result="effect1_foregroundBlur_122_290"/>
</filter>
<filter id="filter8_f_122_290" x="1766.46" y="-3.4" width="71.3586" height="426.631" filterUnits="userSpaceOnUse" color-interpolation-filters="sRGB">
<feFlood flood-opacity="0" result="BackgroundImageFix"/>
<feBlend mode="normal" in="SourceGraphic" in2="BackgroundImageFix" result="shape"/>
<feGaussianBlur stdDeviation="1.7" result="effect1_foregroundBlur_122_290"/>
</filter>
<linearGradient id="paint0_linear_122_290" x1="2213.5" y1="-249" x2="-52.5002" y2="1162" gradientUnits="userSpaceOnUse">
<stop stop-color="#4F2653"/>
<stop offset="1" stop-color="#170034"/>
</linearGradient>
<clipPath id="clip0_122_290">
<rect width="1920" height="1001" fill="white"/>
</clipPath>
</defs>
</svg>
