<svg width="1920" height="1080" viewBox="0 0 1920 1080" fill="none" xmlns="http://www.w3.org/2000/svg">
<rect width="1920" height="1080" fill="url(#paint0_linear_149_23)"/>
<g clip-path="url(#clip0_149_23)">
<g filter="url(#filter0_f_149_23)">
<path fill-rule="evenodd" clip-rule="evenodd" d="M156.711 0.238799C236.905 -7.05446 216.277 154.809 283.852 198.588C358.839 247.168 482.122 181.228 540.483 248.867C596.329 313.591 558.619 414.95 543.053 498.993C525.161 595.596 542.42 767.31 444.151 768.982C310.925 771.25 281.254 552.913 156.711 505.569C96.8999 482.833 56.0746 612.136 -6.2773 597.757C-61.213 585.088 -60.8779 503.36 -81.0564 450.737C-102.575 394.621 -156.585 333.843 -127.684 281.145C-97.5552 226.209 0.754303 264.314 45.3353 220.279C105.297 161.054 72.7611 7.87352 156.711 0.238799Z" fill="#7D6E9E" fill-opacity="0.61"/>
</g>
<g filter="url(#filter1_f_149_23)">
<path fill-rule="evenodd" clip-rule="evenodd" d="M1780.72 470.142C1828.31 465.817 1816.07 561.798 1856.18 587.758C1900.68 616.565 1973.85 577.464 2008.48 617.573C2041.63 655.952 2019.25 716.056 2010.01 765.892C1999.39 823.175 2009.63 924.998 1951.31 925.99C1872.24 927.334 1854.63 797.865 1780.72 769.791C1745.22 756.309 1720.99 832.983 1683.99 824.457C1651.38 816.945 1651.58 768.482 1639.61 737.277C1626.84 704.001 1594.78 667.961 1611.94 636.713C1629.82 604.137 1688.16 626.732 1714.62 600.621C1750.21 565.501 1730.9 474.669 1780.72 470.142Z" fill="#7D6E9E" fill-opacity="0.61"/>
</g>
<g filter="url(#filter2_f_149_23)">
<path fill-rule="evenodd" clip-rule="evenodd" d="M455.562 114.533C480.534 96.3795 487.666 48.5566 518.535 48.0025C541.65 47.5875 521.355 99.9726 540.449 113.009C568.17 131.936 610.644 111.381 638.591 129.972C666.743 148.701 677.999 183.992 692.829 214.38C715.981 261.821 794.45 330.213 750.797 359.896C692.354 399.637 609.212 282.221 546.147 314.121C496.03 339.472 555.146 437.027 516.937 478.19C488.815 508.485 412.253 514.947 394.286 477.721C361.437 409.656 431.958 325.843 408.706 253.933C399.996 226.993 349.104 280.052 325.376 264.605C307.83 253.181 322.08 222.055 329.932 202.646C337.03 185.1 364.239 179.454 367.376 160.789C371.312 137.366 329.631 107.519 348.37 92.9261C369.333 76.6017 397.34 111.922 423.385 117.172C434.051 119.322 446.761 120.931 455.562 114.533Z" fill="#F40E91"/>
</g>
<g filter="url(#filter3_f_149_23)">
<path fill-rule="evenodd" clip-rule="evenodd" d="M1695.98 525.722C1732.26 528.937 1762.46 550.619 1795.85 565.133C1833.65 581.56 1878.5 586.062 1905.78 616.916C1934.61 649.527 1958.93 695.619 1948.56 737.867C1937.95 781.107 1885.58 797.645 1853.75 828.823C1830.89 851.217 1809.2 872.494 1787.32 895.834C1755.69 929.558 1740.32 983.856 1695.98 997.053C1652.4 1010.02 1602.74 989.167 1566.68 961.498C1531.91 934.821 1518.45 890.083 1503.1 849.068C1489.66 813.173 1485.5 776.104 1482.97 737.867C1480.29 697.226 1468.61 653.786 1487.82 617.858C1507.13 581.745 1547.84 563.068 1585.32 546.478C1620.23 531.028 1657.95 522.352 1695.98 525.722Z" fill="#3B095C"/>
</g>
<g filter="url(#filter4_f_149_23)">
<path fill-rule="evenodd" clip-rule="evenodd" d="M1934.04 878.873C1917.63 883.59 1896.56 869.943 1878.71 871.573C1872.33 872.155 1875.81 882.876 1870.04 884.715C1864.22 886.57 1856.83 881.547 1850.12 880.682C1844.34 879.936 1838.49 879.114 1833.06 879.944C1822.47 881.563 1814.26 888.121 1803.1 887.87C1790.38 887.584 1776.27 885.264 1765.13 878.418C1754.31 871.772 1741.79 860.86 1743.05 850.97C1744.57 839.063 1760.32 833.628 1771.65 827.259C1779.57 822.808 1798.42 827.74 1799.25 819.367C1800.72 804.367 1768.07 786.72 1776.83 774.492C1783.81 764.761 1804.65 787.541 1819.55 791.051C1827.59 792.946 1836.12 792.536 1842.99 790.081C1857.65 784.841 1864.77 766.995 1882.01 768.732C1895.08 770.049 1902.84 785.882 1907.09 796.539C1911.34 807.19 1898.38 817.944 1905.59 827.845C1914.35 839.866 1940.37 839.249 1947.39 851.828C1953.05 861.99 1945.36 875.619 1934.04 878.873Z" fill="#F40E91"/>
</g>
<g style="mix-blend-mode:soft-light" opacity="0.54">
<circle cx="248" cy="652" r="16" fill="white"/>
</g>
<g style="mix-blend-mode:soft-light" opacity="0.54">
<circle cx="1309" cy="835" r="15" fill="white"/>
</g>
<g style="mix-blend-mode:soft-light" opacity="0.54">
<circle cx="1580" cy="259" r="30" fill="white"/>
</g>
<g style="mix-blend-mode:soft-light" opacity="0.54">
<circle cx="443.5" cy="940.5" r="14.5" fill="white"/>
</g>
<g style="mix-blend-mode:soft-light" opacity="0.54">
<circle cx="102" cy="87" r="23" fill="white"/>
</g>
<g style="mix-blend-mode:soft-light" opacity="0.54">
<circle cx="117" cy="865" r="15" fill="white"/>
</g>
<g style="mix-blend-mode:soft-light" opacity="0.54">
<circle cx="1783" cy="700" r="13" fill="white"/>
</g>
<g style="mix-blend-mode:soft-light" opacity="0.54">
<circle cx="1280" cy="110" r="16" fill="white"/>
</g>
<g style="mix-blend-mode:soft-light" opacity="0.54">
<circle cx="327" cy="362" r="10" fill="white"/>
</g>
<g style="mix-blend-mode:soft-light" opacity="0.54">
<circle cx="1570" cy="652" r="10" fill="white"/>
</g>
<g style="mix-blend-mode:soft-light" opacity="0.54">
<circle cx="75" cy="608" r="4" fill="white"/>
</g>
<g style="mix-blend-mode:soft-light" opacity="0.54">
<circle cx="1584" cy="546" r="4" fill="white"/>
</g>
<g style="mix-blend-mode:soft-light" opacity="0.54">
<circle cx="1588.5" cy="820.5" r="8.5" fill="white"/>
</g>
<g style="mix-blend-mode:soft-light" opacity="0.54">
<circle cx="136" cy="437" r="4" fill="white"/>
</g>
</g>
<defs>
<filter id="filter0_f_149_23" x="-310.5" y="-174.5" width="1055" height="1118" filterUnits="userSpaceOnUse" color-interpolation-filters="sRGB">
<feFlood flood-opacity="0" result="BackgroundImageFix"/>
<feBlend mode="normal" in="SourceGraphic" in2="BackgroundImageFix" result="shape"/>
<feGaussianBlur stdDeviation="87.25" result="effect1_foregroundBlur_149_23"/>
</filter>
<filter id="filter1_f_149_23" x="1432.5" y="295.5" width="768" height="805" filterUnits="userSpaceOnUse" color-interpolation-filters="sRGB">
<feFlood flood-opacity="0" result="BackgroundImageFix"/>
<feBlend mode="normal" in="SourceGraphic" in2="BackgroundImageFix" result="shape"/>
<feGaussianBlur stdDeviation="87.25" result="effect1_foregroundBlur_149_23"/>
</filter>
<filter id="filter2_f_149_23" x="-58.4" y="-327.4" width="1197.59" height="1206.13" filterUnits="userSpaceOnUse" color-interpolation-filters="sRGB">
<feFlood flood-opacity="0" result="BackgroundImageFix"/>
<feBlend mode="normal" in="SourceGraphic" in2="BackgroundImageFix" result="shape"/>
<feGaussianBlur stdDeviation="187.7" result="effect1_foregroundBlur_149_23"/>
</filter>
<filter id="filter3_f_149_23" x="1177.1" y="225.1" width="1073.8" height="1075.8" filterUnits="userSpaceOnUse" color-interpolation-filters="sRGB">
<feFlood flood-opacity="0" result="BackgroundImageFix"/>
<feBlend mode="normal" in="SourceGraphic" in2="BackgroundImageFix" result="shape"/>
<feGaussianBlur stdDeviation="149.95" result="effect1_foregroundBlur_149_23"/>
</filter>
<filter id="filter4_f_149_23" x="1617.76" y="643.413" width="456.735" height="369.664" filterUnits="userSpaceOnUse" color-interpolation-filters="sRGB">
<feFlood flood-opacity="0" result="BackgroundImageFix"/>
<feBlend mode="normal" in="SourceGraphic" in2="BackgroundImageFix" result="shape"/>
<feGaussianBlur stdDeviation="62.6" result="effect1_foregroundBlur_149_23"/>
</filter>
<linearGradient id="paint0_linear_149_23" x1="2213.5" y1="-249" x2="-52.5002" y2="1162" gradientUnits="userSpaceOnUse">
<stop stop-color="#4F2653"/>
<stop offset="1" stop-color="#170034"/>
</linearGradient>
<clipPath id="clip0_149_23">
<rect width="1920" height="1001" fill="white"/>
</clipPath>
</defs>
</svg>
